<svg xmlns:xlink="http://www.w3.org/1999/xlink" xmlns="http://www.w3.org/2000/svg" width="308" height="377"
     viewBox="0 0 308 377">
    <defs>
        <rect id="b" width="300" height="369" rx="5"/>
        <filter id="a" width="104.7%" height="103.8%" x="-2.3%" y="-1.4%" filterUnits="objectBoundingBox">
            <feOffset dy="2" in="SourceAlpha" result="shadowOffsetOuter1"/>
            <feGaussianBlur in="shadowOffsetOuter1" result="shadowBlurOuter1" stdDeviation="2"/>
            <feColorMatrix in="shadowBlurOuter1" values="0 0 0 0 0 0 0 0 0 0 0 0 0 0 0 0 0 0 0.4 0"/>
        </filter>
        <path id="c" d="M0 0v38h300V0z"/>
        <path id="e" d="M0 0h66v69H0z"/>
    </defs>
    <g fill="none" fill-rule="evenodd">
        <g transform="translate(4 2)">
            <use fill="#000" filter="url(#a)" xlink:href="#b"/>
            <use fill="#FFF" xlink:href="#b"/>
        </g>
        <text fill="#3B3B3B" font-family="Quicksand-Bold, Quicksand" font-size="12" font-weight="bold"
              transform="translate(4 215)">
            <tspan x="14.118" y="24">Warranty Details</tspan>
        </text>
        <g stroke="#E8E8E8">
            <path d="M304 252.946H4h300zM4 215h300H4z"/>
        </g>
        <path d="M268.706 244.514h15.882v-18.215h-15.882z"/>
        <path fill="#9C9C9C" d="M279.956 233.889l-3.309 3.794-3.309-3.794z"/>
        <g stroke="#E8E8E8">
            <path d="M304 290.946H4h300zM4 253h300H4z"/>
        </g>
        <text fill="#3B3B3B" font-family="Quicksand-Bold, Quicksand" font-size="12" font-weight="bold"
              transform="translate(20 263)">
            <tspan x="0" y="13.472">Insurance Details</tspan>
        </text>
        <path d="M267 282h18v-18.24h-18z"/>
        <path fill="#9C9C9C" d="M279.75 271.36l-3.75 3.8-3.75-3.8z"/>
        <g stroke="#E8E8E8">
            <path d="M304 327.946H4h300zM4 290h300H4z"/>
        </g>
        <text fill="#3B3B3B" font-family="Quicksand-Bold, Quicksand" font-size="12" font-weight="bold"
              transform="translate(4 290)">
            <tspan x="14.118" y="24">AMC Details</tspan>
        </text>
        <path d="M268.706 319.514h15.882v-18.215h-15.882z"/>
        <path fill="#9C9C9C" d="M279.956 308.889l-3.309 3.794-3.309-3.794z"/>
        <g>
            <text fill="#3B3B3B" font-family="Quicksand-Bold, Quicksand" font-size="12" font-weight="bold"
                  transform="translate(4 328)">
                <tspan x="14.118" y="24">Repair/Service</tspan>
            </text>
            <path d="M268.706 357.514h15.882v-18.215h-15.882z"/>
            <path fill="#9C9C9C" d="M279.956 346.889l-3.309 3.794-3.309-3.794z"/>
        </g>
        <text fill="#4A4A4A" font-family="Quicksand-Bold, Quicksand" font-size="18" font-weight="bold"
              transform="translate(4 2)">
            <tspan x="76.916" y="121">Google Pixel 2 XL</tspan>
        </text>
        <text fill="#3B3B3B" font-family="PingFangSC-Medium, PingFang SC" font-size="18" font-weight="400"
              transform="translate(4 2)">
            <tspan x="115.431" y="153">₹</tspan>
            <tspan x="126.231" y="153" font-family="Quicksand-Bold, Quicksand" font-weight="bold">82,000</tspan>
        </text>
        <g transform="translate(4 177)">
            <mask id="d" fill="#fff">
                <use xlink:href="#c"/>
            </mask>
            <use fill="#FAFAFA" xlink:href="#c"/>
            <text fill="#CDCDCD" font-family="Quicksand-Bold, Quicksand" font-size="10" font-weight="bold"
                  letter-spacing=".179" mask="url(#d)">
                <tspan x="119.118" y="21.972">Seller</tspan>
            </text>
            <text fill="#CDCDCD" font-family="Quicksand-Bold, Quicksand" font-size="10" font-weight="bold"
                  letter-spacing=".179" mask="url(#d)">
                <tspan x="192.353" y="21.972">General Info</tspan>
            </text>
            <text fill="#009EE5" font-family="Quicksand-Bold, Quicksand" font-size="10" font-weight="bold"
                  letter-spacing=".179" mask="url(#d)">
                <tspan x="17.647" y="21.972">Important</tspan>
            </text>
            <path fill="#009EE5" d="M0 35.889h90V38H0z" mask="url(#d)"/>
        </g>
        <g transform="translate(121 24)">
            <mask id="f" fill="#fff">
                <use xlink:href="#e"/>
            </mask>
            <g fill-rule="nonzero" mask="url(#f)">
                <path fill="#E7ECED"
                      d="M44.701 64.818H20.3c-1.822 0-3.299-1.594-3.299-3.56V7.742c0-1.966 1.477-3.56 3.299-3.56H44.7c1.823 0 3.3 1.594 3.3 3.56v53.515c0 1.967-1.477 3.561-3.299 3.561z"/>
                <path fill="#546A79" d="M17 10.455h31v41.818H17z"/>
                <path fill="#6C797A"
                      d="M32.5 61.682c-1.605 0-2.906-1.404-2.906-3.137 0-1.732 1.3-3.136 2.906-3.136 1.605 0 2.906 1.404 2.906 3.136 0 1.733-1.3 3.137-2.906 3.137zm0-53.318h-3.875c-.536 0-.969-.468-.969-1.046 0-.578.433-1.045.969-1.045H32.5c.536 0 .969.467.969 1.045 0 .578-.433 1.046-.969 1.046zm3.875 0h-.969c-.535 0-.968-.468-.968-1.046 0-.578.433-1.045.968-1.045h.969c.536 0 .969.467.969 1.045 0 .578-.433 1.046-.969 1.046z"/>
                <path fill="#839CAA"
                      d="M34.4 21.974h-3.8c-.556 0-1.006-.486-1.006-1.085v-4.102c0-.6.45-1.085 1.005-1.085h3.802c.555 0 1.005.486 1.005 1.085v4.102c0 .6-.45 1.085-1.005 1.085zm-8.718 0H21.88c-.556 0-1.006-.486-1.006-1.085v-4.102c0-.6.45-1.085 1.006-1.085h3.8c.556 0 1.007.486 1.007 1.085v4.102c0 .6-.451 1.085-1.006 1.085zm17.437 0h-3.8c-.556 0-1.006-.486-1.006-1.085v-4.102c0-.6.45-1.085 1.005-1.085h3.801c.556 0 1.006.486 1.006 1.085v4.102c0 .6-.45 1.085-1.006 1.085zm-8.718 9.39h-3.802c-.555 0-1.005-.487-1.005-1.086v-4.102c0-.599.45-1.085 1.005-1.085h3.802c.555 0 1.005.486 1.005 1.085v4.102c0 .6-.45 1.086-1.005 1.086zm-8.72 0h-3.8c-.556 0-1.006-.487-1.006-1.086v-4.102c0-.599.45-1.085 1.006-1.085h3.8c.556 0 1.007.486 1.007 1.085v4.102c0 .6-.451 1.086-1.006 1.086zm17.438 0h-3.8c-.556 0-1.006-.487-1.006-1.086v-4.102c0-.599.45-1.085 1.005-1.085h3.801c.556 0 1.006.486 1.006 1.085v4.102c0 .6-.45 1.086-1.006 1.086zm-8.718 9.409h-3.802c-.555 0-1.005-.486-1.005-1.085v-4.103c0-.599.45-1.085 1.005-1.085h3.802c.555 0 1.005.486 1.005 1.085v4.103c0 .599-.45 1.085-1.005 1.085zm-8.72 0h-3.8c-.556 0-1.006-.486-1.006-1.085v-4.103c0-.599.45-1.085 1.006-1.085h3.8c.556 0 1.007.486 1.007 1.085v4.103c0 .599-.451 1.085-1.006 1.085zm17.438 0h-3.8c-.556 0-1.006-.486-1.006-1.085v-4.103c0-.599.45-1.085 1.005-1.085h3.801c.556 0 1.006.486 1.006 1.085v4.103c0 .599-.45 1.085-1.006 1.085z"/>
            </g>
        </g>
    </g>
</svg>
