<svg xmlns:xlink="http://www.w3.org/1999/xlink" xmlns="http://www.w3.org/2000/svg" width="308" height="378"
     viewBox="0 0 308 378">
    <defs>
        <rect id="b" width="300" height="370" rx="5"/>
        <filter id="a" width="104.7%" height="103.8%" x="-2.3%" y="-1.4%" filterUnits="objectBoundingBox">
            <feOffset dy="2" in="SourceAlpha" result="shadowOffsetOuter1"/>
            <feGaussianBlur in="shadowOffsetOuter1" result="shadowBlurOuter1" stdDeviation="2"/>
            <feColorMatrix in="shadowBlurOuter1" values="0 0 0 0 0 0 0 0 0 0 0 0 0 0 0 0 0 0 0.396201313 0"/>
        </filter>
        <rect id="c" width="279" height="106" rx="6"/>
        <path id="e" d="M6 0h267a6 6 0 0 1 6 6v65.246H0V6a6 6 0 0 1 6-6z"/>
        <linearGradient id="g" x1="64.146%" x2="13.176%" y1="13.704%" y2="93.074%">
            <stop offset="0%" stop-color="#05D8E3" stop-opacity=".987"/>
            <stop offset="100%" stop-color="#5BA7F5"/>
        </linearGradient>
        <rect id="i" width="43.594" height="43.443" x="13.95" y="13.902" rx="6"/>
        <filter id="h" width="173.4%" height="173.7%" x="-36.7%" y="-32.2%" filterUnits="objectBoundingBox">
            <feOffset dy="2" in="SourceAlpha" result="shadowOffsetOuter1"/>
            <feGaussianBlur in="shadowOffsetOuter1" result="shadowBlurOuter1" stdDeviation="5"/>
            <feComposite in="shadowBlurOuter1" in2="SourceAlpha" operator="out" result="shadowBlurOuter1"/>
            <feColorMatrix in="shadowBlurOuter1" values="0 0 0 0 0 0 0 0 0 0 0 0 0 0 0 0 0 0 0.123046875 0"/>
        </filter>
        <linearGradient id="j" x1="100%" x2="0%" y1="0%" y2="100%">
            <stop offset="0%" stop-color="#F78643"/>
            <stop offset="100%" stop-color="#EC4E20"/>
        </linearGradient>
        <linearGradient id="l" x1="100%" x2="0%" y1="0%" y2="100%">
            <stop offset="0%" stop-color="#05D8E3" stop-opacity=".987"/>
            <stop offset="100%" stop-color="#5BA7F5"/>
        </linearGradient>
        <rect id="k" width="278" height="230" rx="6"/>
        <linearGradient id="n" x1="50%" x2="50%" y1="0%" y2="100%">
            <stop offset="0%" stop-color="#FFF"/>
            <stop offset="100%" stop-color="#FFF" stop-opacity=".421"/>
        </linearGradient>
    </defs>
    <g fill="none" fill-rule="evenodd">
        <g transform="translate(4 2)">
            <use fill="#000" filter="url(#a)" xlink:href="#b"/>
            <use fill="#FFF" xlink:href="#b"/>
        </g>
        <g transform="translate(15 14)">
            <mask id="d" fill="#fff">
                <use xlink:href="#c"/>
            </mask>
            <use fill="#FFF" stroke="#ECECEC" xlink:href="#c"/>
            <g mask="url(#d)">
                <path stroke="#ECECEC" d="M-1.872 71.246h281.744v36.018H-.872z"/>
                <text font-family="Montserrat-Bold, Montserrat" font-size="12" font-weight="bold" letter-spacing=".171"
                      transform="translate(-1.872 71.246)">
                    <tspan x="181.05" y="21.213" fill="#FF732E">See details</tspan>
                </text>
                <path d="M256.331 82.952h12.206v12.606h-12.206z"/>
                <path fill="#FF732E" fill-rule="nonzero"
                      d="M262.434 85.053l-.717.74 2.838 2.937h-6.19v1.05h6.19l-2.838 2.936.717.74 4.07-4.201z"/>
            </g>
            <mask id="f" fill="#fff">
                <use xlink:href="#e"/>
            </mask>
            <g mask="url(#f)">
                <path d="M0 0h78.47v71.246H0z"/>
                <path fill="url(#g)"
                      d="M0 91.23c17.438-2.317 30.225-7.53 38.362-15.64 24.413-24.328 11.335-33.885 25.285-46.918C75.433 17.662 100.717 8.104 139.5 0L0 5.213V91.23z"
                      transform="translate(-17.438 -12.164)"/>
            </g>
            <text fill="#4A4A4A" font-family="Quicksand-Medium, Quicksand" font-size="12" font-weight="400"
                  mask="url(#f)">
                <tspan x="69.75" y="28.148">Total Tax Paid</tspan>
            </text>
            <text fill="#4A4A4A" font-family="PingFangSC-Semibold, PingFang SC" font-size="17" font-weight="500"
                  mask="url(#f)">
                <tspan x="69.75" y="50.541">₹</tspan>
                <tspan x="79.95" y="50.541" font-family="Quicksand-Bold, Quicksand" font-weight="bold">1,300</tspan>
            </text>
            <g mask="url(#f)">
                <use fill="#000" filter="url(#h)" xlink:href="#i"/>
                <use fill="#FFF" xlink:href="#i"/>
                <rect width="42.594" height="42.443" x="14.45" y="14.402" stroke="#E6E6E6" rx="6"/>
            </g>
            <g mask="url(#f)">
                <path d="M18.31 18.246h34.874V53H18.31z"/>
                <path fill="url(#j)" fill-rule="nonzero"
                      d="M15.641 19.273c-5.049 0-9.166-4.135-9.166-9.205S10.592.863 15.64.863c5.048 0 9.166 4.135 9.166 9.205s-4.118 9.205-9.166 9.205z"
                      transform="translate(20.053 19.115)"/>
                <path fill="#FFF" fill-rule="nonzero" d="M20.585 37.9h4.63v10.72h-4.63z"/>
                <path fill="#FFF"
                      d="M32.997 27.142l-.269.804h3.08a1.23 1.23 0 0 1-.501.73c-.379.268-.953.402-1.723.402h-.758v.95c.27 0 .538.085.782.256.22.146.428.341.624.609l2.187 2.874h1.943l-2.64-3.313c-.268-.34-.452-.56-.55-.633.648-.146 1.161-.414 1.552-.804.27-.292.453-.657.526-1.071h1.27l.27-.804h-1.516c-.048-.5-.207-.925-.464-1.266h1.699l.268-.804h-5.804l-.269.804h1.308c.598 0 1.05.121 1.368.39.245.206.391.499.452.876h-2.835z"/>
                <path fill="#FFF" fill-rule="nonzero"
                      d="M50.319 42.354c-.49-1.029-1.657-1.515-2.681-1.126L41.01 43.48c.05-.148.05-.343.05-.537a2.29 2.29 0 0 0-2.288-2.299h-4.924c-.148 0-.342-.05-.49-.097l-3.17-1.664-.051-.05a2.767 2.767 0 0 0-.877-.15h-3.558v-1.32h-5.602V49.06h5.607v-1.029h1.218l9.069 3.036c.341.097.683.195 1.07.195.536 0 1.07-.149 1.56-.395l10.771-5.728c.974-.481 1.412-1.71.923-2.785zm-25.59 5.775v.05h-3.655v-9.792h3.655v9.742z"/>
                <path fill="#009EE5" fill-rule="nonzero"
                      d="M50.319 42.354c-.49-1.029-1.657-1.515-2.681-1.126L41.01 43.48c.05-.148.05-.343.05-.537a2.29 2.29 0 0 0-2.288-2.299h-4.924c-.148 0-.342-.05-.49-.097l-3.17-1.664-.051-.05a2.767 2.767 0 0 0-.877-.15h-3.558v-1.32h-5.602V49.06h5.607v-1.029h1.218l9.069 3.036c.341.097.683.195 1.07.195.536 0 1.07-.149 1.56-.395l10.771-5.728c.974-.481 1.412-1.71.923-2.785zm-25.59 5.775v.05h-3.655v-9.792h3.655v9.742zm24.178-3.768l-10.771 5.677a2.574 2.574 0 0 1-1.902.148l-9.21-3.081h-1.367v-7.392h3.558c.194 0 .342.05.535.097l3.171 1.664.051.05c.245.098.535.15.83.15h4.925c.729 0 1.315.588 1.315 1.32 0 .39-.194.732-.438.978l-.928.343h-3.997c-1.024 0-1.85.834-1.85 1.858h.974c0-.491.387-.88.876-.88h4.048c.49 0 .928-.149 1.315-.44l7.85-2.693c.586-.195 1.218.05 1.463.634a1.11 1.11 0 0 1-.448 1.567z"/>
            </g>
        </g>
        <g transform="translate(15 130)">
            <mask id="m" fill="#fff">
                <use xlink:href="#k"/>
            </mask>
            <use fill="url(#l)" xlink:href="#k"/>
            <path stroke="#FFF" stroke-linecap="square" stroke-opacity=".301" d="M47.06 95.472v106.754" mask="url(#m)"/>
            <g stroke="#FFF" stroke-linecap="square" stroke-opacity=".6" mask="url(#m)" opacity=".248">
                <path d="M47.931 201.819h219.611M47.931 180.62h219.611M47.931 159.422h219.611M47.931 137.408h219.611M47.931 116.21h219.611M47.931 95.011h219.611"/>
            </g>
            <path stroke="#FFF" stroke-linecap="square" stroke-opacity=".301" d="M47.06 202.226h220.482"
                  mask="url(#m)"/>
            <g mask="url(#m)">
                <text font-family="Quicksand-Medium, Quicksand" font-size="8" font-weight="400"
                      transform="translate(58.389 112.83)">
                    <tspan x=".413" y="101.499" fill="#FFF">Week 1</tspan>
                </text>
                <text font-family="Quicksand-Medium, Quicksand" font-size="8" font-weight="400"
                      transform="translate(58.389 112.83)">
                    <tspan x="43.857" y="101.499" fill="#FFF">Week 2</tspan>
                </text>
                <text font-family="Quicksand-Medium, Quicksand" font-size="8" font-weight="400"
                      transform="translate(58.389 112.83)">
                    <tspan x="88.205" y="101.499" fill="#FFF">Week 3</tspan>
                </text>
                <text font-family="Quicksand-Medium, Quicksand" font-size="8" font-weight="400"
                      transform="translate(58.389 112.83)">
                    <tspan x="131.945" y="101.499" fill="#FFF">Week 4</tspan>
                </text>
                <text font-family="Quicksand-Medium, Quicksand" font-size="8" font-weight="400"
                      transform="translate(58.389 112.83)">
                    <tspan x="176.493" y="101.499" fill="#FFF">Week 5</tspan>
                </text>
                <path fill="url(#n)"
                      d="M47.055 35.616H68.45a2 2 0 0 1 2 2v51.702H45.055V37.616a2 2 0 0 1 2-2zM91.291 84.623h21.395a2 2 0 0 1 2 2v2.882H89.29v-2.882a2 2 0 0 1 2-2zM135.527 52.075h21.395a2 2 0 0 1 2 2v35.43h-25.395v-35.43a2 2 0 0 1 2-2zM2.82 0h21.394a2 2 0 0 1 2 2v87.505H.819V2a2 2 0 0 1 2-2z"
                      transform="translate(58.389 112.83)"/>
            </g>
            <g mask="url(#m)">
                <g stroke="#FFF" stroke-linecap="square" stroke-opacity=".6">
                    <path d="M41.293 201.733h4.895M41.293 180.558h4.895M41.293 159.383h4.895M41.293 137.394h4.895M41.293 116.219h4.895M41.293 95.044h4.895"/>
                </g>
                <text font-family="PingFangSC-Regular, PingFang SC" font-size="7" transform="translate(7.843 93.66)">
                    <tspan x="4.874" y="7.711" fill="#FFF">₹</tspan>
                    <tspan x="9.074" y="7.711" fill="#FFF" font-family="Quicksand-Medium, Quicksand" font-weight="400">
                        10,000
                    </tspan>
                </text>
                <text font-family="PingFangSC-Regular, PingFang SC" font-size="7" transform="translate(7.843 93.66)">
                    <tspan x="7.604" y="28.886" fill="#FFF">₹</tspan>
                    <tspan x="11.804" y="28.886" fill="#FFF" font-family="Quicksand-Medium, Quicksand"
                           font-weight="400">5,000
                    </tspan>
                </text>
                <text font-family="PingFangSC-Regular, PingFang SC" font-size="7" transform="translate(7.843 93.66)">
                    <tspan x="9.116" y="50.061" fill="#FFF">₹</tspan>
                    <tspan x="13.316" y="50.061" fill="#FFF" font-family="Quicksand-Medium, Quicksand"
                           font-weight="400">1,000
                    </tspan>
                </text>
                <text font-family="PingFangSC-Regular, PingFang SC" font-size="7" transform="translate(7.843 93.66)">
                    <tspan x="13.533" y="72.05" fill="#FFF">₹</tspan>
                    <tspan x="17.733" y="72.05" fill="#FFF" font-family="Quicksand-Medium, Quicksand" font-weight="400">
                        500
                    </tspan>
                </text>
                <text font-family="PingFangSC-Regular, PingFang SC" font-size="7" transform="translate(7.843 93.66)">
                    <tspan x="15.045" y="93.225" fill="#FFF">₹</tspan>
                    <tspan x="19.245" y="93.225" fill="#FFF" font-family="Quicksand-Medium, Quicksand"
                           font-weight="400">100
                    </tspan>
                </text>
                <text font-family="Quicksand-Medium, Quicksand" font-size="7" font-weight="400"
                      transform="translate(7.843 93.66)">
                    <tspan x="25.944" y="115.98" fill="#FFF">0</tspan>
                </text>
            </g>
            <path stroke="#FFF" stroke-linecap="square" stroke-opacity=".301" d="M12.2 75.51h253.6" mask="url(#m)"/>
            <text fill="#FFF" font-family="Quicksand-Regular, Quicksand" font-size="12" mask="url(#m)">
                <tspan x="95.566" y="64.302">Tax Paid</tspan>
                <tspan x="146.566" y="64.302" font-family="PingFangSC-Medium, PingFang SC" font-weight="400">₹</tspan>
                <tspan x="153.766" y="64.302" font-family="Quicksand-Bold, Quicksand" font-weight="bold">1,300</tspan>
            </text>
            <path stroke="#FFF" stroke-linecap="square" stroke-opacity=".301" d="M12.2 48.604h253.6" mask="url(#m)"/>
            <text fill="#FFF" font-family="Quicksand-Bold, Quicksand" font-size="12" font-weight="bold" mask="url(#m)">
                <tspan x="12.201" y="27.245">For Aug 2017</tspan>
            </text>
            <g mask="url(#m)">
                <g transform="translate(165.58 11.283)">
                    <rect width="97.947" height="24.085" fill="#000" fill-opacity=".142" rx="12.043"/>
                    <text font-family="Quicksand-Bold, Quicksand" font-size="11" font-weight="bold"
                          letter-spacing=".688">
                        <tspan x="9" y="15" fill="#FFF">This Month</tspan>
                    </text>
                    <path fill="#FFF"
                          d="M84.299 14.451a.457.457 0 0 1-.334-.148l-3.542-3.804a.534.534 0 0 1 0-.716.45.45 0 0 1 .668 0l3.208 3.445 3.208-3.445a.45.45 0 0 1 .668 0 .534.534 0 0 1 0 .716l-3.542 3.804a.457.457 0 0 1-.334.148z"/>
                </g>
            </g>
        </g>
    </g>
</svg>
