<svg xmlns="http://www.w3.org/2000/svg" width="12" height="24" viewBox="0 0 12 24">
    <g fill="none" fill-rule="evenodd">
        <path fill="#009EE6" fill-rule="nonzero"
              d="M4.619 1.138c-.88.477-1.495 1.114-1.832 1.896-.316.736-.47 1.776-.47 3.187v.48H.043v4.591h2.274v12.255H7.78V11.293h3.06V6.702H7.78v-.408c0-.884.182-1.106.204-1.13.118-.127.393-.196.773-.196.544 0 1.123.071 1.721.214l.693.166.807-4.157-.584-.185C9.026.262 6.292.23 4.619 1.138zm5.475 2.573c-1.292-.21-2.51-.13-3.115.522-.384.411-.57 1.085-.57 2.06v1.778H9.47v1.852H6.41V22.18H3.683V9.923H1.411V8.071h2.272v-1.85c0-1.202.121-2.092.36-2.643.216-.502.617-.905 1.228-1.237 1.198-.65 3.28-.661 5.127-.195l-.304 1.565z"/>
        <path d="M-6 0h24v24H-6z"/>
    </g>
</svg>
