<svg xmlns="http://www.w3.org/2000/svg" width="23" height="21" viewBox="0 0 23 21">
    <path fill="#68727C" fill-rule="evenodd" d="M.58 6.734h4.483V21H.58V6.734zm16.73-.137c3.187 0 5.69 2.052 5.69 6.471V21h-5.083v-7.382c0-1.933-.795-3.251-2.544-3.251-1.337 0-2.081.89-2.427 1.747-.13.308-.11.737-.11 1.166V21H7.8s.065-13.077 0-14.266h5.036v2.24c.298-.98 1.907-2.377 4.475-2.377zM2.739 0C4.392 0 5.41 1.065 5.442 2.473c0 1.382-1.05 2.477-2.735 2.477h-.032C1.052 4.95 0 3.86 0 2.477 0 1.067 1.083 0 2.738 0z"/>
</svg>
