<svg xmlns="http://www.w3.org/2000/svg" width="93" height="80" viewBox="0 0 93 80">
    <g fill="#FEFEFE" fill-rule="evenodd" opacity=".071">
        <path d="M45.063 22.383a161.458 161.458 0 0 1 3.578-4.36c.6-.784 1.13-1.27 1.523-1.546a7.18 7.18 0 0 1 2.425-1.014c.923-.208 2.054-.324 3.416-.278 1.385.07 2.839.278 4.386.623 1.8.416 3.232.946 4.294 1.615 1.062.623 1.593 1.338 1.662 2.03.07.738-.369 1.66-1.316 2.791a258.478 258.478 0 0 1-3.347 4.037c-5.54-1.315-11.081-2.606-16.621-3.898m-26.225-4.775c1.338-1.454 2.677-2.93 4.016-4.36.693-.785 1.247-1.269 1.686-1.545a8.264 8.264 0 0 1 2.539-1.015c.923-.231 2.078-.323 3.416-.254 1.386.023 2.817.254 4.317.6 1.778.415 3.163.945 4.133 1.614.993.623 1.477 1.338 1.454 2.076-.023.692-.554 1.615-1.593 2.745-1.223 1.361-2.47 2.7-3.716 4.06-5.425-1.292-10.827-2.63-16.252-3.92M0 22.105C9.195 11.06 26.386-11.18 49.495 6.928c10.92-5.167 41.988 2.056 30.773 15.478-4.352 5.207-11.243 11.797-16.068 16.387C42.085 34.064 22.116 26.835 0 22.106M92.876 49.084L64.801 79.397s-21.17-6.26-31.443-9.31c-8.31-2.46-16.621-4.924-24.932-7.386L6.833 55.48l5.84-6.19 10.782 3.189c-2.055 2.204-4.133 4.409-6.187 6.613-.37.398-.208.867.415 1.055.577.164 1.386-.024 1.778-.422 2.054-2.204 4.11-4.408 6.164-6.59l5.84 1.712c-2.077 2.204-4.132 4.408-6.187 6.613-.393.398-.208.867.393 1.055.6.187 1.408 0 1.777-.422 2.055-2.181 4.133-4.385 6.187-6.59l6.049 1.807c-2.055 2.18-4.11 4.385-6.188 6.589-.369.398-.184.867.416 1.054.6.188 1.385-.023 1.778-.421 2.054-2.181 4.132-4.385 6.186-6.59l5.772 1.712c-2.055 2.204-4.132 4.408-6.187 6.59-.393.421-.208.89.393 1.054.6.188 1.408 0 1.777-.398l6.21-6.59 5.817 1.713c-2.077 2.204-4.132 4.408-6.21 6.612-.369.399-.184.867.416 1.055.6.165 1.385 0 1.778-.422 2.054-2.18 4.132-4.385 6.187-6.589l4.778 1.407-6.21 6.589c-.392.422-.184.891.393 1.079.6.164 1.408-.024 1.778-.422l6.21-6.59h.046l19.028-20.255 9.024 4.598zM7.484 55.48l1.593 7.223 3.603-5.33-5.196-1.893z"/>
        <path d="M92.876 29.762L64.801 60.075s-21.17-6.261-31.443-9.31c-8.31-2.462-16.621-4.925-24.932-7.386l-1.593-7.223 5.84-6.19 10.782 3.19c-2.055 2.203-4.133 4.408-6.187 6.612-.37.399-.208.867.415 1.055.577.164 1.386-.024 1.778-.422 2.054-2.204 4.11-4.408 6.164-6.59l5.84 1.713c-2.077 2.204-4.132 4.408-6.187 6.613-.393.398-.208.867.393 1.054.6.188 1.408 0 1.777-.422 2.055-2.18 4.133-4.384 6.187-6.589l6.049 1.806c-2.055 2.18-4.11 4.385-6.188 6.589-.369.398-.184.868.416 1.054.6.188 1.385-.023 1.778-.421 2.054-2.18 4.132-4.385 6.186-6.589l5.772 1.712c-2.055 2.204-4.132 4.408-6.187 6.588-.393.423-.208.891.393 1.056.6.187 1.408 0 1.777-.4l6.21-6.588 5.817 1.712c-2.077 2.204-4.132 4.408-6.21 6.612-.369.399-.184.868.416 1.055.6.165 1.385 0 1.778-.422 2.054-2.18 4.132-4.385 6.187-6.589l4.778 1.407-6.21 6.589c-.392.423-.184.892.393 1.079.6.164 1.408-.023 1.778-.422l6.21-6.59h.046l19.028-20.255 9.024 4.6zM7.57 36.028l1.593 7.223 3.603-5.33-5.196-1.893z"/>
    </g>
</svg>
