<svg xmlns:xlink="http://www.w3.org/1999/xlink" xmlns="http://www.w3.org/2000/svg" width="397" height="446"
     viewBox="0 0 397 446">
    <defs>
        <ellipse id="a" cx="20.136" cy="25.288" rx="1.49" ry="1.489"/>
        <path id="b" d="M18 3.202h16.179a2.88 2.88 0 0 1 2.88 2.88v30.895a2.88 2.88 0 0 1-2.88 2.88H18V3.202z"/>
        <rect id="c" width="26.466" height="32.989" rx="4.32"/>
        <path id="d"
              d="M20.754 13.643v-3.208S23.15 8.029 23.15.81c-2.016-1.443-5.85-1.145-7.982 2.406C13.034-.333 9.2-.633 7.184.811c0 7.218 2.395 9.624 2.395 9.624v3.208C2.964 19.773 0 34.494 0 34.494s11.175 3.208 15.167 3.208c3.99 0 15.166-3.208 15.166-3.208s-2.964-14.722-9.579-20.851"/>
        <path id="f" d="M21.18.524a2.13 2.13 0 0 1 2.104 2.46l-.518 3.3h-3.17l-.519-3.3a2.13 2.13 0 0 1 2.104-2.46z"/>
        <path id="g"
              d="M9.414.524a2.219 2.219 0 0 1 2.19 2.58l-.526 3.18H7.75l-.525-3.18a2.219 2.219 0 0 1 2.19-2.58z"/>
        <path id="h"
              d="M0 32.948v-.604c.123-.026.088-.13.096-.207.202-1.147.43-2.285.596-3.433.167-1.181.807-2.026 1.806-2.647 1.314-.811 2.751-1.294 4.25-1.639.657-.155 1.314-.37 2.007-.32.473.82.946 1.648 1.42 2.468.35.595.35.595 1.033.465.018 0 .044.026.062.043a4.75 4.75 0 0 1-.088.337c-.762 2.656-1.534 5.321-2.305 7.978-.079.267-.105.422.246.509.832.198 1.656.44 2.48.68.263.079.377.044.447-.24.254-.984.552-1.958.832-2.942.272-.957.552-1.906.833-2.872.157.052.131.156.149.233.534 1.846 1.069 3.692 1.586 5.546.079.267.166.37.464.285.833-.25 1.674-.483 2.524-.699.254-.069.298-.164.228-.414-.386-1.277-.745-2.562-1.113-3.847-.438-1.526-.876-3.044-1.323-4.623.219.06.394.095.552.147.131.052.219.017.289-.103.543-.992 1.192-1.932 1.691-2.95.561-.06 1.096.13 1.63.25 1.683.362 3.322.871 4.768 1.82.753.5 1.367 1.121 1.55 2.044.158.802.299 1.604.465 2.406.123.604.114 1.234.342 1.82v.518c-.167 0-.245.138-.36.224-3.39 2.579-7.212 4.07-11.48 4.459-.525.043-2.61.069-2.698.06-4.128-.155-7.914-1.354-11.34-3.622-.561-.362-1.096-.75-1.639-1.13z"/>
        <path id="i"
              d="M10.413 19.375c-1.579-.324-2.868-1.15-4.017-2.206-2.482-2.282-3.254-5.041-2.29-8.21.834-2.75 2.299-5.16 4.316-7.246.715-.74 1.56-1.194 2.492-1.46.474-.134 1.974-.265 2.552-.252.561.013 1.239.033 1.768.057.395.019 1.541.236 1.872.365a5.915 5.915 0 0 1 2.192 1.503c1.92 2.06 3.324 4.403 4.122 7.068.973 3.253.131 6.038-2.456 8.311-1 .886-2.079 1.652-3.438 1.942-.14.034-.28.068-.43.05.193-.186.395-.374.588-.57 1.079-1.115 1.798-2.427 2.298-3.874.044-.137.035-.324.272-.315.438 0 .631-.307.78-.639.246-.554.351-1.141.439-1.729.087-.587.184-1.183-.018-1.762-.079-.23-.219-.443-.517-.46-.316-.017-.272.28-.395.434-.105.128-.026.451-.29.383-.201-.06-.078-.323-.087-.494.175-.51-.044-.775-.447-1.047-1.316-.903-2.184-2.103-2.43-3.687-.026-.196-.044-.4-.07-.656-.956.809-1.886 1.533-2.894 2.163-1.956 1.218-4.035 2.095-6.394 2.214-.65.034-.702.085-.623.724.009.085.035.17.026.255-.008.188.132.469-.105.528-.228.06-.175-.272-.28-.409-.115-.144-.07-.425-.36-.417-.29.009-.421.222-.526.443a.91.91 0 0 0-.097.366c-.052 1.15.132 2.257.605 3.313.106.23.281.434.544.451.28.009.36.145.43.366.482 1.43 1.219 2.725 2.263 3.84.21.222.226.343.605.657z"/>
        <path id="j"
              d="M9.604 19.396c-1.034-1.15-1.75-2.466-2.223-3.93-.078-.226-.147-.366-.423-.374-.258-.009-.43-.227-.534-.462-.465-1.08-.646-2.222-.595-3.39a1.09 1.09 0 0 1 .095-.374c.104-.227.233-.454.517-.454.285-.008.242.28.354.427.103.14.043.47.276.419.232-.061.086-.349.103-.54.009-.088-.017-.175-.026-.262-.077-.662-.026-.706.612-.74 2.318-.123 4.361-1.02 6.283-2.266.991-.645 1.913-1.386 2.844-2.214.026.262.043.462.069.671.233 1.621 1.094 2.85 2.387 3.773.388.28.612.55.448 1.029.009.217-.12.496.078.549.25.07.181-.253.284-.392.121-.157.078-.462.388-.445.285.018.423.235.509.47.198.602.103 1.203.017 1.804-.086.602-.19 1.203-.431 1.77-.146.34-.336.662-.767.653-.233 0-.224.183-.267.322-.491 1.473-1.198 2.824-2.258 3.965-.181.2-.38.392-.578.584-.06.06-.112.122-.172.183-.147.06-.267.157-.396.253-1.362.958-2.784 1.455-4.405.618-.5-.252-.948-.592-1.422-.871-.06-.044-.568-.558-.767-.776z"/>
        <rect id="k" width="33.513" height="41.891" y="3.142" rx="3.84"/>
        <rect id="l" width="27.229" height="35.607" x="3.142" y="6.284" rx="2.4"/>
        <path id="m"
              d="M15.952 3.49v-.13A3.36 3.36 0 0 0 12.592 0H5.736a3.36 3.36 0 0 0-3.36 3.36v.13H1.44A1.44 1.44 0 0 0 0 4.93v3.055c0 .796.645 1.44 1.44 1.44h15.447a1.44 1.44 0 0 0 1.44-1.44V4.931a1.44 1.44 0 0 0-1.44-1.44h-.935z"/>
        <filter id="n" width="115.6%" height="112.7%" x="-7.8%" y="-5.1%" filterUnits="objectBoundingBox">
            <feOffset dy="2" in="SourceAlpha" result="shadowOffsetOuter1"/>
            <feGaussianBlur in="shadowOffsetOuter1" result="shadowBlurOuter1" stdDeviation="3"/>
            <feColorMatrix in="shadowBlurOuter1" result="shadowMatrixOuter1"
                           values="0 0 0 0 0 0 0 0 0 0 0 0 0 0 0 0 0 0 0.301828578 0"/>
            <feMerge>
                <feMergeNode in="shadowMatrixOuter1"/>
                <feMergeNode in="SourceGraphic"/>
            </feMerge>
        </filter>
        <path id="o" d="M0 157h127.989V.025H0z"/>
        <path id="q"
              d="M5.877 2.541c6.17-1.347 12.31-2.02 18.419-2.02 6.105 0 12.208.672 18.31 2.018a1.92 1.92 0 0 1 1.507 1.875v11.614c0 1.04-.842 1.882-1.882 1.882H6.248a1.882 1.882 0 0 1-1.882-1.882V4.418a1.92 1.92 0 0 1 1.51-1.877z"/>
        <path id="r"
              d="M.933 1.33C3.287.443 5.088 0 6.336 0c1.248 0 3.049.443 5.403 1.33.561.21.933.748.933 1.347v4.938H0V2.677c0-.6.371-1.136.933-1.347z"/>
        <path id="s"
              d="M16.942 1.33C19.296.443 21.097 0 22.345 0c1.248 0 3.05.443 5.403 1.33.562.21.933.748.933 1.347v4.938H16.009V2.677c0-.6.372-1.136.933-1.347z"/>
        <path id="t" d="M2.426 29.288h43.272a5.067 5.067 0 0 1-5.067 5.067H7.493a5.067 5.067 0 0 1-5.067-5.067z"/>
        <path id="u"
              d="M2.794 18.038l21.323-3.128 21.12 3.125a3.269 3.269 0 0 1 2.79 3.234v9.047c0 .53-.43.96-.96.96H.96a.96.96 0 0 1-.96-.96v-9.044a3.269 3.269 0 0 1 2.794-3.234z"/>
    </defs>
    <g fill="none" fill-rule="evenodd">
        <path fill="#B7E7FF"
              d="M188.129.718l20.786 3.734c12.854 2.31 21.632 14.302 19.947 27.253l-.99 7.604c-1.62 12.457-12.407 21.666-24.964 21.312l-19.041-.536c-12.588-.355-22.853-10.2-23.732-22.763l-.755-10.802c-.943-13.487 9.226-25.185 22.713-26.128a24.48 24.48 0 0 1 6.036.326z"/>
        <g transform="translate(163.882 2.422)">
            <ellipse cx="14.294" cy="4.713" fill="#9ECDE4" rx="2.647" ry="2.618"/>
            <ellipse cx="2.382" cy="14.4" fill="#9ECDE4" rx="1.853" ry="1.833"/>
            <g stroke="#9ECDE4" stroke-linecap="round" stroke-width="1.44">
                <path d="M3.441.262v6.55M6.753 3.537H.13"/>
            </g>
        </g>
        <g transform="rotate(180 112.647 28.702)">
            <ellipse cx="2.382" cy="14.4" fill="#9ECDE4" rx="1.853" ry="1.833"/>
            <g stroke="#9ECDE4" stroke-linecap="round" stroke-width="1.44">
                <path d="M3.441.262v6.55M6.753 3.537H.13"/>
            </g>
        </g>
        <path fill="#A3E1FF" stroke="#545454" stroke-width="1.588"
              d="M174.47 15.513h35.57c.877 0 1.587.71 1.587 1.587v20.755h-38.745V17.1c0-.876.711-1.587 1.588-1.587z"/>
        <path fill="#C4DEE0" stroke="#545454" stroke-width="1.588"
              d="M172.882 36.982h40.236v5.047a2.4 2.4 0 0 1-2.4 2.4h-35.436a2.4 2.4 0 0 1-2.4-2.4v-5.047z"/>
        <g transform="translate(172.882 15.513)">
            <use fill="#545454" xlink:href="#a"/>
            <ellipse cx="20.136" cy="25.288" stroke="#545454" stroke-width="1.588" rx="1" ry="1"/>
        </g>
        <path fill="#C2DADC" stroke="#545454" stroke-linecap="round" stroke-linejoin="round" stroke-width="1.588"
              d="M189.347 44.73h7.451l2.235 5.213h-11.921z"/>
        <path fill="#EAEAEA" stroke="#545454" stroke-linecap="round" stroke-width="1.588"
              d="M178.162 23.3l2.572-3.09M178.162 28.157l7.478-8.516"/>
        <g transform="translate(203.588 25.462)">
            <path fill="#AFDEFF" stroke="#545454" stroke-width="1.44"
                  d="M1.056 0h11.123c.584 0 1.056.473 1.056 1.056V19.19H0V1.056C0 .473.473 0 1.056 0z"/>
            <path fill="#7EC6F8" stroke="#545454" stroke-width="1.44"
                  d="M0 18.755h13.235v3.307c0 .584-.472 1.056-1.056 1.056H1.056A1.056 1.056 0 0 1 0 22.062v-3.307z"/>
            <ellipse cx="6.795" cy="21.07" fill="#545454" rx="1" ry="1"/>
        </g>
        <path fill="#D8D8D8" stroke="#545454" stroke-linecap="round" stroke-linejoin="round" stroke-width="1.44"
              d="M211.372 27.636h-2.478"/>
        <path fill="#FFECAB"
              d="M188.909 385.44l20.007 3.594c12.854 2.31 21.632 14.302 19.947 27.253l-2.668 20.507a10.08 10.08 0 0 1-10.28 8.775l-32.048-.902c-12.587-.355-22.853-10.201-23.731-22.763l-.7-10.012c-.967-13.827 9.458-25.82 23.285-26.786a25.097 25.097 0 0 1 6.188.334z"/>
        <g transform="translate(164.412 387.527)">
            <ellipse cx="14.294" cy="4.713" fill="#E6D187" rx="2.647" ry="2.618"/>
            <ellipse cx="2.382" cy="14.4" fill="#E6D187" rx="1.853" ry="1.833"/>
            <g stroke="#E6D187" stroke-linecap="round" stroke-width="1.44">
                <path d="M3.441.262v6.55M6.753 3.537H.13"/>
            </g>
        </g>
        <g transform="rotate(180 112.912 221.255)">
            <ellipse cx="2.382" cy="14.4" fill="#E6D187" rx="1.853" ry="1.833"/>
            <g stroke="#E6D187" stroke-linecap="round" stroke-width="1.44">
                <path d="M3.441.262v6.55M6.753 3.537H.13"/>
            </g>
        </g>
        <g>
            <g transform="translate(166 401.665)">
                <g stroke="#545454" transform="translate(0 3.475)">
                    <path fill="#FFE075" stroke-linecap="round" stroke-linejoin="round" stroke-width="1.44"
                          d="M37.15 19.35H14.09c0-2.478-2.027-4.487-4.528-4.487-2.5 0-4.527 2.01-4.527 4.487H1.687C-.78 15.41-.417 11.221 2.777 6.787c.959-1.154 1.584-1.99 2.515-1.99 9.165 0 22.425 1.268 31.424 1.99 2.36.19 5.047.087 6.588.224 8.394.745 10.475 4.33 10.475 4.33-.01.359 0 1.624 0 2.946a5.063 5.063 0 0 1-5.063 5.063h-2.511c0-2.478-2.027-4.487-4.528-4.487-2.5 0-4.527 2.01-4.527 4.487z"/>
                    <rect width="3.541" height="3.084" x="50.459" y="12.335" fill="#545454" stroke-linecap="round"
                          stroke-linejoin="round" stroke-width=".5" rx=".941"/>
                    <path fill="#DDDEE1" stroke-linecap="round" stroke-linejoin="round" stroke-width="1.44"
                          d="M39.246 6.709S30.404.593 26.531.593H12.902c-1.578.458-2.435.865-3.713 1.384-1.834.746-4.26 2.454-4.968 3.232 0 0 .614 1.074 3.702 1.5 3.087.425 4.98.252 6.92.252h27.602"/>
                    <path stroke-width="1.44" d="M19.523.441l-.712 5.995"/>
                </g>
                <ellipse cx="41.837" cy="22.989" fill="#E4E7EE" stroke="#545454" stroke-linecap="round"
                         stroke-linejoin="round" stroke-width="1.44" rx="4.528" ry="4.487"/>
                <ellipse cx="41.727" cy="22.883" fill="#545454" rx="1.473" ry="1.459"/>
                <ellipse cx="9.437" cy="22.989" fill="#E4E7EE" stroke="#545454" stroke-linecap="round"
                         stroke-linejoin="round" stroke-width="1.44" rx="4.528" ry="4.487"/>
                <ellipse cx="9.327" cy="22.883" fill="#545454" rx="1.473" ry="1.459"/>
                <path fill="#F87E99" stroke="#545454" stroke-linecap="round" stroke-linejoin="round" stroke-width="1.44"
                      d="M1.615 13.041l4.589.175-1.22 3.043H.544s-.135-.511.155-1.61c.29-1.097.614-1.608.614-1.608"/>
                <path fill="#D8D8D8" stroke="#545454" stroke-linecap="round" stroke-linejoin="round" stroke-width="1.44"
                      d="M24.107 13.609H21.39"/>
                <path fill="#FFE075" stroke="#545454" stroke-linecap="round" stroke-linejoin="round" stroke-width="1.44"
                      d="M14.217.392h6.822s2.462 0 3.612 1.477c1.149 1.477 1.269 2.19 1.269 2.19H13.36l.857-3.667z"/>
            </g>
        </g>
        <g>
            <path fill="#FFDD83"
                  d="M69.13 345.827l20.786 3.734c12.854 2.31 21.631 14.302 19.947 27.253l-2.5 19.217a11.52 11.52 0 0 1-11.749 10.03l-30.747-.867c-12.588-.355-22.853-10.2-23.731-22.763l-.755-10.802c-.944-13.487 9.225-25.185 22.712-26.128a24.48 24.48 0 0 1 6.036.326z"/>
            <g transform="translate(45.941 346.484)">
                <ellipse cx="14.294" cy="4.713" fill="#E3B682" rx="2.647" ry="2.618"/>
                <g stroke="#E3B682" stroke-linecap="round" stroke-width="1.44">
                    <path d="M52.676 54.196v-6.55M49.365 50.921h6.623"/>
                </g>
                <ellipse cx="2.382" cy="14.4" fill="#E3B682" rx="1.853" ry="1.833"/>
                <g stroke="#E3B682" stroke-linecap="round" stroke-width="1.44">
                    <path d="M3.441.262v6.55M6.753 3.537H.13"/>
                </g>
            </g>
            <g transform="translate(54.412 355.325)">
                <use fill="#FFC86B" xlink:href="#b"/>
                <path stroke="#545454" stroke-width="1.44"
                      d="M18.72 3.922v35.215h15.459a2.16 2.16 0 0 0 2.16-2.16V6.082a2.16 2.16 0 0 0-2.16-2.16H18.72z"/>
            </g>
            <path fill="#FFA66B" stroke="#545454" stroke-linecap="round" stroke-linejoin="round" stroke-width="1.44"
                  d="M57.292 358.435h5.153c3.382-3.004 6.88-3.004 10.496 0v34.445a.96.96 0 0 1-1.427.838c-2.993-1.668-5.9-1.354-8.72.94h-5.357a2.88 2.88 0 0 1-2.88-2.866l-.145-30.463a2.88 2.88 0 0 1 2.88-2.894z"/>
            <g stroke="#545454" stroke-width="1.44" transform="translate(57.588 364.81)">
                <ellipse cx="1.765" cy="1.745" fill="#FF7676" rx="1.765" ry="1.745"/>
                <path fill="#FF7676" stroke-linejoin="round"
                      d="M4.385 10.473H3.122c-.21 0-.413-.034-.603-.097l1.517-2.999c.077.092.144.194.2.303l1.411 2.793H4.385h3.713a2.4 2.4 0 0 0 2.141-3.483l-.862-1.706a2.4 2.4 0 0 0-4.284 0L4.036 7.377z"/>
                <path stroke-linecap="round" d="M1.059 15.185h10.237M1.059 19.375h10.237"/>
            </g>
            <g stroke="#545454" stroke-width="1.44" transform="translate(76.118 368.476)">
                <path fill="#40CA9A" stroke-linecap="round" stroke-linejoin="round"
                      d="M18.6 13.45V5.997H.386v13.838h18.505s3.197.098 3.488-3.045c0-3.34-3.779-3.34-3.779-3.34z"/>
                <path fill="#34B482" stroke-linejoin="round"
                      d="M18.458 5.593V.075s3.561-.096 3.754 2.807c.192 2.904 0 13.8 0 13.8s.192-2.905-3.754-3.292V5.593z"/>
                <ellipse cx="11.382" cy="13.091" fill="#FFC86B" rx="2.941" ry="2.967"/>
                <path stroke-linecap="round"
                      d="M6.723 17.63H5.12a.48.48 0 0 1-.48-.48v-.262a.48.48 0 0 0-.48-.48h-.215a.694.694 0 0 1-.694-.694V10.41c0-.35.284-.635.635-.635h.155a.48.48 0 0 0 .48-.48v-.437a.48.48 0 0 1 .48-.48H6.55"/>
            </g>
        </g>
        <g>
            <path fill="#D4ECFF"
                  d="M357.23 235.431l15.536 1.778c13.063 1.495 22.613 13.043 21.628 26.155l-1.669 22.218c-.519 6.912-6.385 12.192-13.314 11.984l-27.566-.831c-12.569-.379-22.806-10.218-23.683-22.761l-.704-10.057c-1.032-14.76 10.097-27.562 24.857-28.594a26.791 26.791 0 0 1 4.915.108z"/>
            <g transform="translate(333.84 239.34)">
                <ellipse cx="14.011" cy="4.713" fill="#B5CEE2" rx="2.595" ry="2.618"/>
                <ellipse cx="2.335" cy="14.4" fill="#B5CEE2" rx="1.816" ry="1.833"/>
                <g stroke="#B5CEE2" stroke-linecap="round" stroke-width="1.44">
                    <path d="M3.373.262v6.55M6.619 3.537H.127"/>
                </g>
            </g>
            <g transform="rotate(180 195.202 147.16)">
                <ellipse cx="2.854" cy="12.829" fill="#B5CEE2" rx="1.816" ry="1.833"/>
                <g stroke="#B5CEE2" stroke-linecap="round" stroke-width="1.44">
                    <path d="M3.373.262v6.55M6.619 3.537H.127"/>
                </g>
            </g>
            <g stroke="#545454" stroke-linecap="round" stroke-linejoin="round" stroke-width="1.44"
               transform="translate(351.484 266.569)">
                <path fill="#A8D9FF"
                      d="M32.174 25.135c0-6.941-5.46-12.568-12.195-12.568S7.784 18.194 7.784 25.135h24.39z"/>
                <path d="M18.163 16.756c-2.485.942-4.525 2.829-5.709 5.237"/>
                <ellipse cx="20.498" cy="10.735" fill="#FCBC52" rx="1.816" ry="1.833"/>
                <path d="M0 28.276h35.287M19.72 0s-2.738.898-.953 3.411c1.786 2.513-.199 3.396-.199 3.396M22.833.524s-1.825.621-.635 2.361c1.19 1.74-.132 2.351-.132 2.351"/>
            </g>
            <g>
                <g transform="translate(335.397 262.903)">
                    <use fill="#5CD9EA" xlink:href="#c"/>
                    <rect width="25.026" height="31.549" x=".72" y=".72" stroke="#545454" stroke-width="1.44"
                          rx="4.32"/>
                </g>
                <path stroke="#545454" stroke-linecap="round" stroke-width="1.44"
                      d="M351.012 267.79l5.448 9.163M354.904 268.575l1.816 3.141"/>
                <path fill="#FF6B76" stroke="#545454" stroke-linecap="round" stroke-linejoin="round" stroke-width="1.44"
                      d="M344.738 285.943h4.628a4.713 4.713 0 0 1 4.713 4.713h-4.629a4.713 4.713 0 0 1-4.712-4.713z"/>
                <path fill="#95BBEC" stroke="#545454" stroke-width="1.44" d="M347.332 252.954h2.724v10.473h-2.724z"/>
                <path fill="#95BBEC" stroke="#545454" stroke-width="1.44"
                      d="M345.28 250.86h7.218a2.618 2.618 0 0 1 2.618 2.618h-12.454a2.618 2.618 0 0 1 2.618-2.619z"/>
                <path fill="#FCBC52" stroke="#545454" stroke-linecap="round" stroke-linejoin="round" stroke-width="1.44"
                      d="M341.451 266.569h1.903l1.903 2.12v7.829h-5.709v-7.83z"/>
                <path stroke="#545454" stroke-linecap="round" stroke-width="1.44" d="M342.403 263.95v5.237"/>
            </g>
        </g>
        <g>
            <path fill="#DAF4FF"
                  d="M29.138 236.268l19.952 3.644c12.798 2.338 21.532 14.277 19.884 27.183l-1.911 14.965c-1.064 8.33-8.275 14.492-16.668 14.245l-25.623-.752c-12.576-.37-22.825-10.211-23.702-22.762l-.75-10.734c-.944-13.487 9.225-25.185 22.712-26.128a24.48 24.48 0 0 1 6.106.339z"/>
            <g transform="translate(5.844 237.33)">
                <ellipse cx="14.121" cy="4.713" fill="#B1E2F7" rx="2.615" ry="2.618"/>
                <ellipse cx="2.353" cy="14.4" fill="#B1E2F7" rx="1.83" ry="1.833"/>
                <g stroke="#B1E2F7" stroke-linecap="round" stroke-width="1.44">
                    <path d="M3.4.262v6.55M6.67 3.537H.129"/>
                </g>
            </g>
            <g stroke="#B1E2F7" stroke-linecap="round" stroke-width="1.44">
                <path d="M59.973 291.004v-6.551M56.702 287.728h6.542"/>
            </g>
            <g transform="translate(8.46 251.993)">
                <mask id="e" fill="#fff">
                    <use xlink:href="#d"/>
                </mask>
                <use fill="#FFDE52" fill-rule="nonzero" stroke="#545454" stroke-linecap="round" stroke-linejoin="round"
                     stroke-width="1.44" xlink:href="#d"/>
                <path stroke="#545454" stroke-linecap="round" stroke-width="1.44"
                      d="M10.678 19.942s-5.492 5.76-5.23 12.829" mask="url(#e)"/>
            </g>
            <path fill="#FFEC9D" fill-rule="nonzero"
                  d="M24.1 255.763c-.237.236-.71.236-.948 0-2.843-4.713-6.861-2.594-6.872-2.592 0 0 .095 2.215.237 3.299s.474 2.12.474 2.12c.677.41 2.352.943 3.2.943a4.463 4.463 0 0 0 3.127-1.274.783.783 0 0 1 .545-.218c.199 0 .397.073.546.218a4.464 4.464 0 0 0 3.126 1.274c.849 0 2.05-.532 2.727-.942 0 0 .356-1.726.474-2.624.117-.897.237-2.796.237-2.796-.011-.002-4.029-2.12-6.873 2.592z"/>
            <g fill-rule="nonzero" stroke="#545454" stroke-width="1.44">
                <path fill="#FF5F6E" d="M18.065 266.056h11.122v-3.219H18.065z"/>
                <path fill="#8ACFEB"
                      d="M24.681 266.602h-1.636c-.465 0-.84-.294-.84-.657v-3.87c0-.363.375-.657.84-.657h1.636c.465 0 .841.294.841.657v3.87c0 .363-.376.657-.84.657"/>
            </g>
            <g transform="rotate(6 -2323.79 207.23)">
                <use fill="#FF5F6E" xlink:href="#f"/>
                <path stroke="#545454" stroke-width="1.2"
                      d="M20.109 5.684h2.144l.439-2.793a1.53 1.53 0 1 0-3.022 0l.439 2.793z"/>
            </g>
            <g transform="scale(-1 1) rotate(6 -2353.43 -133.818)">
                <use fill="#FF5F6E" xlink:href="#g"/>
                <path stroke="#545454" stroke-width="1.2"
                      d="M8.26 5.684h2.309l.442-2.678a1.619 1.619 0 1 0-3.194 0l.442 2.678z"/>
            </g>
            <g>
                <path stroke="#545454" stroke-width="1.44"
                      d="M36.177 274.51h8.368M41.93 277.942c-.818-.818-2.32-.818-3.138 0"/>
                <path stroke="#545454" stroke-linecap="round" stroke-width="1.44"
                      d="M25.194 276.604h1.046M54.481 276.604h1.046"/>
                <path fill="#FF5F6E" fill-rule="nonzero" stroke="#545454" stroke-width="1.44"
                      d="M33.04 274.277h-2.883c-.812 0-1.622.16-2.348.523-.784.393-1.569 1.048-1.569 2.095v4.713s.14 2.609 2.893 3.425c.959.283 1.984.222 2.933-.094 2.167-.72 6.726-2.631 6.726-5.95 0 0 .458-4.712-2.615-4.712h-3.138zM47.707 274.277h2.882c.812 0 1.622.16 2.348.523.784.393 1.569 1.048 1.569 2.095v4.713s-.14 2.609-2.893 3.425c-.959.283-1.984.222-2.933-.094-2.167-.72-6.726-2.631-6.726-5.95 0 0-.458-4.712 2.615-4.712h3.138z"/>
                <path stroke="#FFA1AA" stroke-linecap="round" stroke-width=".96"
                      d="M28.332 278.466l2.092-2.095M30.424 280.037l3.661-3.666M44.022 278.466l2.092-2.095M46.114 280.037l3.66-3.666"/>
            </g>
        </g>
        <g>
            <path fill="#C7FBF8"
                  d="M356.121 130.966l24.392 2.32c10.028.955 17.384 9.858 16.43 19.887-.02.208-.043.416-.07.624l-1.801 13.852c-1.516 11.658-11.105 20.593-22.84 21.282l-22.494 1.32c-9.538.56-17.81-6.526-18.72-16.037l-1.584-16.546c-1.288-13.458 8.578-25.412 22.036-26.7a24.48 24.48 0 0 1 4.651-.002z"/>
            <g transform="translate(333.893 129.63)">
                <ellipse cx="14.288" cy="4.713" fill="#A5DEDA" rx="2.646" ry="2.618"/>
                <ellipse cx="2.381" cy="14.4" fill="#A5DEDA" rx="1.852" ry="1.833"/>
                <g stroke="#A5DEDA" stroke-linecap="round" stroke-width="1.44">
                    <path d="M3.44.262v6.55M6.75 3.537H.13"/>
                </g>
            </g>
            <g transform="rotate(180 195.522 93.876)">
                <ellipse cx="1.852" cy="17.018" fill="#A5DEDA" rx="1.852" ry="1.833"/>
                <g stroke="#A5DEDA" stroke-linecap="round" stroke-width="1.44">
                    <path d="M8.202.262v6.55M11.512 3.537h-6.62"/>
                </g>
            </g>
            <g fill-rule="nonzero">
                <g transform="translate(336.01 140.625)">
                    <use fill="#6B6B6B" fill-rule="evenodd" xlink:href="#h"/>
                    <path stroke="#545454" stroke-width="1.44"
                          d="M10.765 27.587c-.003-.002-.005-.003 0 0zm.443-.45l-.443.45.029.025c.061.06.213.14.414.14v-.615zm15.537 5.448l.004-.004a3.02 3.02 0 0 1 .04-.038c-.108-.317-.161-.621-.226-1.149l-.004-.033a7.324 7.324 0 0 0-.089-.595c-.073-.354-.14-.7-.238-1.217l-.045-.24c-.09-.48-.13-.692-.182-.955-.124-.619-.517-1.103-1.24-1.583-1.212-.795-2.628-1.31-4.531-1.72-.104-.023-.18-.042-.365-.089a5.908 5.908 0 0 0-.667-.141c-.194.366-.42.752-.804 1.386l-.025.04c-.335.556-.495.826-.68 1.163a.984.984 0 0 1-.478.428c.176.62.39 1.363.866 3.02l.164.572c.076.263.122.426.275.965.4 1.402.594 2.074.84 2.886.119.426.037.791-.231 1.038 2.738-.705 5.266-1.942 7.594-3.712l.022-.022zM.72 32.574v.07a.708.708 0 0 1-.293.304h-.3l-.03-.14.315-.45.308.216zm8.12-6.883l-.101-.177-.401-.696c-.258.02-.562.085-1.05.208a22.3 22.3 0 0 1-.379.094c-1.614.371-2.903.852-4.031 1.548-.868.54-1.343 1.219-1.473 2.14-.076.52-.164 1.05-.289 1.74l-.125.688c-.09.487-.133.728-.176.965 0 .138-.021.27-.07.39l.076.054c.601.424.869.609 1.215.832a20.818 20.818 0 0 0 6.344 2.838c-.29-.268-.33-.667-.194-1.127a2855.49 2855.49 0 0 0 2.143-7.413c-.139-.053-.261-.148-.402-.297-.122-.128-.18-.219-.376-.552-.198-.342-.356-.617-.71-1.235zM12.75 36.51a1.28 1.28 0 0 1-.2.45c.166.01.333.017.5.024a70.06 70.06 0 0 0 1.922-.034 1.479 1.479 0 0 1-.215-.454c-.308-1.104-.576-2.05-1.002-3.528l-.18.626-.244.845-.182.628c-.167.578-.29 1.02-.4 1.443zm14.768-4.071l-.671.26a3.915 3.915 0 0 1-.049-.132v-.031c.038-.036.076-.068.113-.097h.607zm-15.711 3.45h.002-.001-.001z"/>
                </g>
                <path fill="#F5F7F9"
                      d="M345.006 164.648c.414-.566.985-.966 1.522-1.402.15-.122.325-.095.501-.104-.026.296-.07.566.194.827.87.853 1.715 1.741 2.55 2.62.194.21.317.21.52 0 .774-.827 1.565-1.636 2.366-2.437.29-.288.519-.575.378-1.01.167.009.343-.018.502.104.536.436 1.108.836 1.521 1.393-.501 1.028-1.152 1.977-1.697 2.978-.07.122-.15.148-.29.104-.159-.06-.326-.087-.555-.148.449 1.594.889 3.126 1.328 4.667.37 1.297.74 2.586 1.118 3.883.07.253.035.349-.23.418a68.71 68.71 0 0 0-2.532.705c-.308.096-.396-.017-.467-.287-.519-1.863-1.064-3.726-1.592-5.598-.017-.079.009-.183-.15-.235-.28.966-.554 1.933-.835 2.899-.281.984-.58 1.968-.836 2.969-.079.296-.193.322-.448.244a50.193 50.193 0 0 0-2.49-.688c-.36-.087-.325-.244-.246-.514.774-2.681 1.54-5.372 2.314-8.053.035-.114.061-.227.087-.34-.017-.017-.044-.052-.061-.043-.686.139-.686.139-1.038-.47-.484-.819-.959-1.655-1.434-2.482z"/>
                <g transform="translate(336.01 140.625)">
                    <use fill="#8A7066" fill-rule="evenodd" xlink:href="#i"/>
                    <path stroke="#545454" stroke-width="1.44"
                          d="M20.85 11.31c-.217.176-.504.223-.8.146a.865.865 0 0 1-.614-.671 1.138 1.138 0 0 1 0-.438l.003-.016c.006-.037.007-.047.008-.023l-.007-.139.045-.131c.036-.105.056-.065-.174-.22-1.346-.924-2.235-2.114-2.611-3.58a21.912 21.912 0 0 1-1.995 1.417c-2.26 1.407-4.39 2.19-6.67 2.318.022.133.029.21.019.298 0-.023.002-.01.008.03l.002.01c.03.196.038.302.003.47a.877.877 0 0 1-.656.68.85.85 0 0 1-.73-.132c.024.862.204 1.67.545 2.432.023.051.008.037-.089.031.6.019.927.341 1.09.856.464 1.375 1.16 2.568 2.103 3.575.082.087.135.152.22.264l.003.003c.11.144.16.199.319.33l2.226 1.84-2.83-.58c-1.597-.328-2.992-1.125-4.36-2.381-2.685-2.47-3.535-5.516-2.49-8.948.855-2.824 2.362-5.34 4.486-7.538.774-.8 1.712-1.338 2.813-1.652.523-.149 2.075-.296 2.766-.28.662.016 1.302.036 1.785.058.48.023 1.7.258 2.1.413a6.635 6.635 0 0 1 2.456 1.683c2.033 2.18 3.47 4.627 4.286 7.353 1.051 3.513.136 6.592-2.669 9.056-1.293 1.146-2.417 1.82-3.74 2.101l-.005.001c-.292.071-.445.094-.682.067l-1.51-.172 1.089-1.058.002-.002.296-.285c.116-.11.2-.193.275-.27.947-.978 1.636-2.163 2.13-3.594l.005-.02.003-.014c.11-.464.388-.801.95-.78.024 0 .03-.007.122-.211.178-.401.277-.824.385-1.543l.007-.05c.038-.254.054-.37.068-.505.007-.07.012-.136.015-.199z"/>
                </g>
                <g transform="translate(336.01 140.625)">
                    <use fill="#EBC1A5" fill-rule="evenodd" xlink:href="#j"/>
                    <path stroke="#545454" stroke-width="1.44"
                          d="M6.728 15.788c-.453-.09-.769-.427-.965-.873-.498-1.156-.71-2.4-.652-3.722a1.81 1.81 0 0 1 .158-.626c.25-.546.562-.875 1.15-.874l.052-.001c.143-.454.537-.657 1.251-.696 1.993-.105 3.879-.821 5.928-2.15.893-.58 1.77-1.269 2.759-2.148l1.055-.939.14 1.406.034.356a13.912 13.912 0 0 0 .03.284c.195 1.355.896 2.434 2.096 3.29.263.19.469.39.607.61.066-.006.137-.007.214-.003.596.037.946.41 1.149.964.12.366.164.74.15 1.15a7.692 7.692 0 0 1-.097.93l-.007.052c-.123.854-.244 1.39-.483 1.951-.244.568-.556.944-1.058 1.055-.554 1.609-1.32 2.963-2.36 4.084-.166.183-.303.32-.6.607-.018.017-.03.03-.069.072-.045.05-.07.077-.104.111l-.102.103-.133.056a.816.816 0 0 0-.15.096l-.098.072-.011.008c-1.78 1.253-3.414 1.566-5.143.673a8.927 8.927 0 0 1-.913-.546l-.11-.071a17.057 17.057 0 0 0-.496-.313c-.117-.085-.642-.615-.878-.875l-.003-.003c-1.055-1.174-1.825-2.535-2.34-4.09z"/>
                </g>
                <path fill="#D39263" d="M350.298 140.625a2.97 2.97 0 0 1-1.588 0h1.588z"/>
                <path fill="#E4AD87"
                      d="M346.594 160.524c.492.282.95.617 1.45.88 1.654.847 3.105.345 4.495-.625.132-.088.255-.194.405-.255-.132.872-.352 1.745-.176 2.635.14.44-.088.722-.378 1.022-.8.81-1.584 1.64-2.366 2.468-.194.211-.317.211-.52 0a90.667 90.667 0 0 0-2.55-2.653c-.264-.264-.21-.538-.193-.837.167-.89-.027-1.763-.167-2.635z"/>
                <path fill="#E76767"
                      d="M352.415 157.848c-1.056 1.271-2.812 1.47-4.231.465-.2-.14-.574-.24-.528-.456.045-.217.437-.225.682-.316.492-.191.992-.2 1.502-.058.081.025.19.058.254.033.846-.324 1.584 0 2.32.332z"/>
            </g>
            <g transform="translate(357.177 147.956)">
                <path fill="#545454" fill-rule="nonzero" d="M18.521 27.753h-4.763l2.382-5.237z"/>
                <path fill="#FD9808" fill-rule="nonzero" stroke="#545454" stroke-width="1.44"
                      d="M13.23 30.895l.581-4.19h4.657l.582 4.19z"/>
                <g fill="#FD9808" fill-rule="nonzero">
                    <path d="M9.551 19.92l1.17 2.492-.335 1.642 3.013 4.173 2.199-4.984c-2.309 0-4.398-1.329-5.882-3.211l-.165-.111zM22.055 20.032c-1.484 1.882-3.573 3.211-5.882 3.211l2.199 4.984 3.344-4.632-.641-.625 1.145-3.05-.165.112z"/>
                </g>
                <path fill="#FCC309" fill-rule="nonzero" stroke="#545454" stroke-width="1.44"
                      d="M30.43 26.238c-3.027-1.627-5.944-2.861-8.586-3.198h-.275l-3.577 5.05.55 2.805h-.22H31.75v-2.413c0-.954-.495-1.795-1.32-2.244"/>
                <g fill="#FCC309" fill-rule="nonzero">
                    <path stroke="#545454" stroke-width="1.44"
                          d="M10.15 23.086h-.273c-2.627.331-5.473 1.545-8.483 3.144C.573 26.671.026 27.5.026 28.436v2.372H13.16l.547-2.758-3.557-4.964z"/>
                    <path d="M13.16 30.808h.25z"/>
                </g>
                <path fill="#EBC1A5" fill-rule="nonzero" stroke="#545454" stroke-width="1.44"
                      d="M7.938 10.996v2.846c0 5.009 3.663 10.245 8.202 10.245 4.538 0 8.202-5.236 8.202-10.245v-2.846H7.938z"/>
                <path fill="#FCC309" fill-rule="nonzero" stroke="#545454" stroke-width="1.44"
                      d="M18.385 2.474c0-.576.363-2.474-1.123-2.474H15.05c-.599 0-1.09.471-1.09 1.047v.524c-4.085.942-7.08 4.189-7.08 8.378v1.047H25.4V9.95c0-4.189-2.996-7.436-7.081-8.378"/>
                <rect width="2.646" height="4.713" x="14.817" y=".524" fill="#E76767" rx=".48"/>
                <path stroke="#545454" stroke-linecap="round" stroke-linejoin="round" stroke-width="1.44"
                      d="M10.583 3.142L12.7 5.236M22.225 3.142L20.11 5.236"/>
            </g>
        </g>
        <g>
            <path fill="#FFE7C5"
                  d="M296.854 29.155l31.84-1.47c7.68-.355 14.192 5.584 14.547 13.263.022.467.02.935-.006 1.402l-1.362 24.918c-.726 13.268-11.904 23.535-25.186 23.132l-22.106-.67c-9.076-.276-16.482-7.352-17.17-16.405l-1.256-16.504-.3-3.935c-.924-12.16 8.183-22.766 20.343-23.691.218-.017.437-.03.656-.04z"/>
            <g transform="translate(281.248 31.758)">
                <ellipse cx="13.979" cy="4.711" fill="#EDC9A7" rx="2.589" ry="2.617"/>
                <ellipse cx="2.33" cy="14.395" fill="#EDC9A7" rx="1.812" ry="1.832"/>
                <g stroke="#EDC9A7" stroke-linecap="round" stroke-width="1.44">
                    <path d="M3.365.262V6.81M6.604 3.536H.127"/>
                </g>
            </g>
            <g transform="rotate(180 169.1 43.36)">
                <ellipse cx="2.33" cy="14.395" fill="#EDC9A7" rx="1.812" ry="1.832"/>
                <g stroke="#EDC9A7" stroke-linecap="round" stroke-width="1.44">
                    <path d="M3.365.262V6.81M6.604 3.536H.127"/>
                </g>
            </g>
            <g stroke="#545454">
                <path fill="#FFE18E" stroke-linecap="round" stroke-linejoin="round" stroke-width="1.44"
                      d="M305.716 72.408h14.88V43.797h-24.85v29.068s-.154 5.022 4.755 5.479c5.215 0 5.215-5.936 5.215-5.936z"/>
                <path fill="#4ECB9F" stroke-width="1.44"
                      d="M294.45 66.394c4.432 0 8.025-3.535 8.025-7.896s-3.593-7.896-8.025-7.896-8.024 3.535-8.024 7.896 3.592 7.896 8.024 7.896z"/>
                <text fill="#545454" stroke-width=".5" font-family="PingFangSC-Semibold, PingFang SC" font-size="11.52"
                      font-weight="500" transform="translate(286.426 50.078)">
                    <tspan x="4.377" y="12.434">₹</tspan>
                </text>
                <path fill="#FFB676" stroke-linejoin="round" stroke-width="1.44"
                      d="M321.199 72.062h8.715s.153 5.827-4.434 6.142c-4.587.315-25.076 0-25.076 0s4.588.315 5.2-6.142h15.595z"/>
                <path stroke-linecap="round" stroke-linejoin="round" stroke-width="1.44"
                      d="M300.825 48.246h15.738M309.206 58.191h7.436M305.582 54.004h11.077M305.582 63.426h11.077M300.818 68.66h15.745"/>
            </g>
        </g>
        <g>
            <path fill="#FFDCDF"
                  d="M306.356 346.54l27.47 5.24c6.477 1.237 10.876 7.299 10.04 13.84l-2.422 18.965c-1.597 12.508-12.435 21.757-25.039 21.367l-27.669-.855a10.56 10.56 0 0 1-10.208-9.819l-1.582-22.626c-.956-13.674 9.354-25.535 23.027-26.49a24.82 24.82 0 0 1 6.383.378z"/>
            <g transform="translate(282.913 348.316)">
                <ellipse cx="14.121" cy="4.713" fill="#E8C1C4" rx="2.615" ry="2.618"/>
                <ellipse cx="2.353" cy="14.4" fill="#E8C1C4" rx="1.83" ry="1.833"/>
                <g stroke="#E8C1C4" stroke-linecap="round" stroke-width="1.44">
                    <path d="M3.4.262v6.55M6.67 3.537H.129"/>
                </g>
            </g>
            <g transform="rotate(180 169.174 200.602)">
                <ellipse cx="2.353" cy="14.4" fill="#E8C1C4" rx="1.83" ry="1.833"/>
                <g stroke="#E8C1C4" stroke-linecap="round" stroke-width="1.44">
                    <path d="M3.4.262v6.55M6.67 3.537H.129"/>
                </g>
            </g>
            <g stroke-width="1.44">
                <path fill="#E04F5F" fill-rule="nonzero" stroke="#545454"
                      d="M328.897 364.83c-4.556-4.564-11.943-4.564-16.5 0h-.003c-4.556-4.564-11.944-4.564-16.5 0-4.556 4.563-3.9 11.387 0 16.524 4.13 5.44 11.67 14.417 16.5 14.417h.004c4.83 0 12.37-8.976 16.5-14.417 3.899-5.137 4.556-11.961 0-16.524z"/>
                <path stroke="#545454" stroke-linecap="round" stroke-linejoin="round"
                      d="M291.803 381.715h11.17l4.887-12.977 1.63 20.16 3.723-13.44 1.861 9.037 3.258-12.513 2.095 15.062 1.629-5.561h10.017"/>
                <path stroke="#FFF" stroke-linecap="round" d="M321.548 366.447s5.711.917 5.949 6.873"/>
            </g>
        </g>
        <g>
            <path fill="#E7F0EF"
                  d="M71.465 28.993l20.603 3.12c9.386 1.422 16.325 9.49 16.325 18.984v26.108c0 7.158-5.802 12.96-12.96 12.96-.126 0-.253-.002-.379-.006l-34.104-.997c-8.63-.252-15.665-7.007-16.268-15.62L43.38 54.904c-.943-13.487 9.226-25.185 22.713-26.128a24.48 24.48 0 0 1 5.373.216z"/>
            <g transform="translate(50.516 31.182)">
                <circle cx="14.138" cy="4.713" r="2.618" fill="#C3D5D3"/>
                <g transform="rotate(180 26.705 27.23)">
                    <circle cx="2.356" cy="14.4" r="1.833" fill="#C3D5D3"/>
                    <g stroke="#C3D5D3" stroke-linecap="round" stroke-width="1.44">
                        <path d="M3.404.262v6.55M6.679 3.537H.129"/>
                    </g>
                </g>
                <circle cx="2.356" cy="14.4" r="1.833" fill="#C3D5D3"/>
                <g stroke="#C3D5D3" stroke-linecap="round" stroke-width="1.44">
                    <path d="M3.404.262v6.55M6.679 3.537H.129"/>
                </g>
            </g>
            <g transform="translate(59.418 39.036)">
                <use fill="#FFC86B" xlink:href="#k"/>
                <rect width="32.073" height="40.451" x=".72" y="3.862" stroke="#545454" stroke-width="1.44" rx="3.84"/>
            </g>
            <g transform="translate(59.418 39.036)">
                <use fill="#E7F0EF" xlink:href="#l"/>
                <rect width="25.789" height="34.167" x="3.862" y="7.004" stroke="#545454" stroke-width="1.44" rx="2.4"/>
            </g>
            <path stroke="#545454" stroke-linecap="round" stroke-linejoin="round" stroke-width="1.44"
                  d="M68.241 74.382h16.92M68.241 68.622h11.16"/>
            <g fill-rule="nonzero" transform="translate(67.273 39.036)">
                <use fill="#FF5855" fill-rule="evenodd" xlink:href="#m"/>
                <path stroke="#545454" stroke-width="1.44"
                      d="M16.887 4.21h-1.655v-.85a2.64 2.64 0 0 0-2.64-2.64H5.736a2.64 2.64 0 0 0-2.64 2.64v.85H1.44a.72.72 0 0 0-.72.72v3.055c0 .398.322.72.72.72h15.447a.72.72 0 0 0 .72-.72V4.931a.72.72 0 0 0-.72-.72z"/>
            </g>
            <g fill="#D8D8D8" stroke="#545454" stroke-width="1.44" transform="translate(68.32 53.698)">
                <circle cx="4.451" cy="1.978" r="1.978"/>
                <path d="M0 8.902a4.45 4.45 0 0 1 8.902 0H0z"/>
            </g>
        </g>
        <g filter="url(#n)" transform="translate(132 132)">
            <path fill="#ADADAD" d="M67.765 106.46l54.984 2.692L128 4.188 73.016 1.495z"/>
            <path fill="#CCCCCE" d="M69.65 0l-1.885 103.718 55.339.949L124.988.949z"/>
            <path fill="#FFF" d="M64.753 109.152h54.212V4.486H64.753z"/>
            <path fill="#78787A"
                  d="M79.384 17.84h3.32c.954-.013 1.442-.5 1.465-1.46-.023-.646-.504-.983-1.444-1.01h-3.341v2.47zm0-4.468h2.846c.818-.014 1.238-.433 1.26-1.259-.022-.493-.435-.754-1.24-.78h-2.866v2.039zm5.334.72c.89.592 1.362 1.362 1.416 2.308-.09 1.903-1.114 2.91-3.07 3.022l-5.72-.007V9.327h5.395c1.712.099 2.616 1.088 2.71 2.968-.031.897-.275 1.496-.731 1.797z"/>
            <mask id="p" fill="#fff">
                <use xlink:href="#o"/>
            </mask>
            <path fill="#78787A"
                  d="M88.16 19.415h2.027V9.314h-2.026zM94.281 9.32v8.21h5.422v1.885h-7.455V9.32zM103.43 9.32v8.21h5.423v1.885h-7.455V9.32zM68.446 24.944h49.324v-1.77H68.446z"
                  mask="url(#p)"/>
            <path fill="#8D8D8E"
                  d="M72.93 35.417h15.133V33.95H72.93zM72.93 38.352h28.076v-1.467H72.93zM72.93 44.221h28.178v-1.568H72.93zM72.93 41.236h35.872v-1.518H72.93zM72.93 47.409h43.363V45.94H72.93z"
                  mask="url(#p)"/>
            <path fill="#BC5555"
                  d="M71.757 34.6a.932.932 0 0 1-.935.93.932.932 0 0 1-.936-.93c0-.513.42-.928.936-.928.517 0 .935.415.935.929M71.757 37.663a.932.932 0 0 1-.935.929.932.932 0 0 1-.936-.93c0-.512.42-.928.936-.928.517 0 .935.416.935.929M71.757 40.412a.932.932 0 0 1-.935.93.932.932 0 0 1-.936-.93c0-.513.42-.929.936-.929.517 0 .935.416.935.93M71.757 43.474a.932.932 0 0 1-.935.93.932.932 0 0 1-.936-.93c0-.513.42-.929.936-.929.517 0 .935.416.935.93M71.757 46.724a.932.932 0 0 1-.935.929.932.932 0 0 1-.936-.929c0-.513.42-.929.936-.929.517 0 .935.416.935.929"
                  mask="url(#p)"/>
            <path fill="#78787A"
                  d="M70.229 103.52h.612V87.076h-.612zM71.197 102.306h.612v-15.23h-.612zM72.114 101.951h.612V87.076h-.612zM73.134 103.52h.662V87.076h-.662zM74.05 102.306h.663v-15.23h-.662zM75.019 101.951h.611V87.076h-.611zM80.828 103.52h.611V87.076h-.611zM79.809 102.306h.611v-15.23h-.611zM78.84 101.951h.663V87.076h-.662zM77.923 103.52h.612V87.076h-.612zM76.955 102.306h.612v-15.23h-.612zM75.987 101.951h.611V87.076h-.611zM81.745 103.52h.662V87.076h-.662zM82.662 102.306h.663v-15.23h-.663zM83.63 101.951h.663V87.076h-.663zM84.65 103.52h.61V87.076h-.61zM85.618 102.306h.56v-15.23h-.56zM86.535 101.951h.662V87.076h-.662zM92.242 103.52h.662V87.076h-.662zM91.325 102.306h.662v-15.23h-.662zM90.356 101.951h.612V87.076h-.612zM89.44 103.52h.61V87.076h-.61zM88.42 102.306h.612v-15.23h-.612zM87.452 101.951h.662V87.076h-.662zM93.312 103.52h.56V87.076h-.56zM94.229 102.306h.612v-15.23h-.612zM95.146 101.951h.612V87.076h-.612zM96.114 103.52h.612V87.076h-.612zM97.083 102.306h.662v-15.23h-.662zM98.05 101.951h.612V87.076h-.611zM103.809 103.52h.56V87.076h-.56zM102.84 102.306h.612v-15.23h-.611zM101.872 101.951h.663V87.076h-.663zM100.853 103.52h.663V87.076h-.663zM99.936 102.306h.612v-15.23h-.612zM99.019 101.951h.611V87.076h-.611zM104.726 103.52h.611V87.076h-.611zM105.694 102.306h.662v-15.23h-.662zM106.713 101.951h.612V87.076h-.612zM107.63 103.52h.612V87.076h-.612zM108.548 102.306h.611v-15.23h-.611zM109.567 101.951h.662V87.076h-.662zM115.274 103.52h.662V87.076h-.662zM114.356 102.306h.663v-15.23h-.663zM113.388 101.951h.663V87.076h-.663zM112.42 103.52h.612V87.076h-.612zM111.503 102.306h.56v-15.23h-.56zM110.484 101.951h.662V87.076h-.662zM96.645 85.113c.004-4.672.398-9.335.96-13.97.014-.12-.175-.119-.19 0-.552 4.502.472 9.078-.475 13.549l.157-.042c-.603-.578-.86-1.432-1.052-2.218-.21-.86-.313-1.743-.427-2.62-.118-.91-.268-1.813-.37-2.727-.108-.984-.233-2.002-.694-2.894-.036-.07-.158-.057-.172.022-.474 2.614.507 5.423-.56 7.938l.158-.041c-.454-.438-.71-1.044-.908-1.63-.26-.77-.405-1.579-.504-2.382-.171-1.4-.25-2.927.077-4.311l-.173.022c.857 1.495 1.261 3.199 1.63 4.865.281 1.273.576 2.531.916 3.79.166.615.316 1.244.359 1.882.034.523-.048 1.076-.519 1.395-.442.299-.975-.078-1.301-.373-.427-.387-.76-.88-1.035-1.381a3.51 3.51 0 0 1-.357-.883l-.172.072c.243.57.453 1.153.466 1.779l.095-.094c-1.298-.032-2.067-1.47-2.387-2.55-.036-.12-.199-.08-.182.037.057.407.024.832-.15 1.186h.162c-.603-.91-.673-2.602.366-3.273-.043-.011-.086-.017-.13-.028.372.488.519 1.27.579 1.861.03.294.047.681-.152.925s-.632.2-.882.081c-.61-.29-.96-1.05-1.214-1.63a8.366 8.366 0 0 1-.556-1.78c-.02-.103-.2-.08-.185.025.168 1.253.423 2.636.003 3.865l.116-.065c-.77-.137-1.49-.452-2.23-.693-.694-.226-1.307-.254-2.03-.2-.282.02-.575.058-.856.02-.33-.046-.66-.346-.881-.57-.542-.55-.889-1.285-1.301-1.928-.035-.054-.131-.066-.163 0-.236.493-.325 1.039-.587 1.522-.148.271-.324.42-.64.429a1.092 1.092 0 0 1-.712-.233c-.752-.598-.635-1.944-.416-2.756.259-.96 1.111-1.508 1.998-1.859 1.009-.398 2.157-.531 3.226-.334.593.11 1.17.345 1.622.747.493.436.706 1.025.782 1.661.211 1.78-1.043 3.705-2.819 4.114-.12.028-.067.203.05.181 7.633-1.384 15.417-1.764 23.02-3.324 2.08-.427 4.14-.948 6.16-1.597.117-.038.069-.202-.05-.181-7.955 1.425-15.818 3.413-23.878 4.204-1.66.162-3.319.334-4.979.49-1.691.16-3.396.266-5.094.145-.122-.01-.12.178 0 .187 1.892.135 3.79-.014 5.674-.2 1.91-.19 3.826-.36 5.734-.576 3.972-.447 7.906-1.17 11.823-1.95 3.589-.713 7.168-1.474 10.77-2.12l-.05-.18c-7.439 2.389-15.28 2.98-22.988 3.98-2.07.268-4.137.569-6.192.941l.05.181c1.328-.306 2.307-1.378 2.752-2.624.367-1.028.33-2.299-.365-3.183-.588-.748-1.575-1.06-2.49-1.149-1.037-.1-2.112.099-3.062.512-.667.29-1.4.75-1.713 1.429-.33.713-.399 1.593-.249 2.357.147.749.646 1.323 1.458 1.3.925-.025 1.026-1.405 1.328-2.063h-.163c.41.658.763 1.35 1.27 1.923.407.46.896.733 1.512.708.35-.015.698-.048 1.048-.06.398-.013.758.059 1.14.169.82.236 1.595.609 2.441.759.053.01.098-.013.116-.065.426-1.247.175-2.643.004-3.914l-.186.025c.13.69.365 1.37.657 2.007.286.628.726 1.42 1.451 1.609.274.071.615.013.83-.172.24-.207.254-.606.248-.894-.008-.432-.111-.865-.236-1.277-.089-.29-.192-.623-.38-.869-.029-.039-.081-.064-.128-.033-1.127.728-1.096 2.517-.434 3.541.035.054.132.068.163 0 .199-.426.235-.88.17-1.342l-.182.05c.345 1.168 1.177 2.654 2.569 2.688a.094.094 0 0 0 .094-.093c-.014-.66-.235-1.272-.492-1.873-.044-.102-.196-.027-.173.072.215.934.885 1.913 1.63 2.508.309.247.692.435 1.095.347.392-.086.688-.498.796-.858.148-.49.054-1.055-.03-1.547-.106-.61-.275-1.207-.444-1.8-.384-1.348-.63-2.728-.954-4.09-.328-1.378-.732-2.762-1.44-4-.04-.068-.154-.057-.173.023-.343 1.455-.25 3.051-.063 4.52.1.792.257 1.581.513 2.339.2.594.475 1.204.933 1.646.056.054.131.022.158-.04 1.07-2.523.086-5.323.56-7.939l-.173.022c.49.95.589 2.053.701 3.097.099.913.258 1.813.375 2.723.113.879.233 1.76.457 2.619.192.737.476 1.519 1.04 2.059.048.046.143.027.158-.044.95-4.488-.072-9.047.483-13.6h-.19c-.56 4.654-.955 9.3-.958 13.972 0 .121.188.123.188.002M68.446 69.216h49.324v-1.72H68.446zM69.656 61.474h1.867v-.595h-1.867zM74.475 61.474h1.867v-.595h-1.867zM79.293 61.474h1.867v-.595h-1.867zM84.111 61.474h1.867v-.595h-1.867zM88.93 61.474h1.867v-.595H88.93zM93.749 61.474h1.867v-.595H93.75zM98.568 61.474h1.868v-.595h-1.868zM103.387 61.474h1.867v-.595h-1.867zM108.206 61.474h1.867v-.595h-1.867zM113.024 61.474h1.868v-.595h-1.868z"
                  mask="url(#p)"/>
            <path fill="#8D8D8E"
                  d="M72.93 53.733h28.178v-1.518H72.93zM72.93 50.799h35.872V49.28H72.93zM72.93 56.971h43.363v-1.467H72.93z"
                  mask="url(#p)"/>
            <path fill="#BC5555"
                  d="M71.757 49.974a.932.932 0 0 1-.935.929.932.932 0 0 1-.936-.93c0-.513.42-.928.936-.928.517 0 .935.415.935.929M71.757 53.036a.932.932 0 0 1-.935.929.932.932 0 0 1-.936-.93c0-.512.42-.928.936-.928.517 0 .935.416.935.929M71.757 56.285a.932.932 0 0 1-.935.93.932.932 0 0 1-.936-.93c0-.513.42-.929.936-.929.517 0 .935.416.935.93"
                  mask="url(#p)"/>
            <path fill="#E8BF94"
                  d="M88.8 48.34c-6.957-1.67-8.784 5.89-8.784 5.89l-7.374 27.162s-4.091 2.286-7.306 1.285c-.618-.192-.452-1.362.21-3.119V60.343C59.41 65.473 50.75 72.76 49.453 76.242c-1.04 2.796-1.414 8.536-1.628 16.048-.161 5.672-.233 12.354-.429 19.547-.085 3.13-1.49 6.932-3.718 11.047 4.71 4.305 10.49 15.362 16.581 20.93 2.173 1.984 5.195 2.519 7.829 1.65 10.542-7.49 11.597-13.208 14.65-18.75 3.194-5.796 8.882-20.496 7.742-34.764-1.111-13.907.134-10.428 2.52-25.933.062-.402.125-.807.188-1.235C95.699 47.839 88.8 48.34 88.8 48.34"
                  mask="url(#p)"/>
            <path fill="#201A26"
                  d="M56.71 134.981l14.441 13.054a3.609 3.609 0 0 1 .207 5.181l-3.436 3.615c-6.832-1.644-12.355-2.67-13.875-4.045l-12.59-1.684 3.467-3.666 11.785-12.455z"
                  mask="url(#p)"/>
            <path fill="#380B60"
                  d="M42.268 121.926l14.441 13.055-11.785 12.455-3.468 3.666-14.442-13.054a3.608 3.608 0 0 1-.206-5.18l10.16-10.74c1.406-1.486 3.78-1.577 5.3-.202"
                  mask="url(#p)"/>
            <path fill="#7D93A4" d="M36.039 157h.001l15.309-15.991z" mask="url(#p)"/>
            <path fill="#610EAA" d="M68.054 156.109l-16.705-15.1L36.04 157h32.795a5.372 5.372 0 0 0-.781-.891"
                  mask="url(#p)"/>
            <path fill="#9013FE"
                  d="M34.643 125.906c-1.476-1.334-3.436-1.609-4.379-.613L0 157h36.039l15.31-15.992-16.706-15.102z"
                  mask="url(#p)"/>
        </g>
        <g>
            <path fill="#FFE6BE"
                  d="M29.895 130.264l33.302 6.007a10.08 10.08 0 0 1 8.207 11.215l-2.745 21.198c-1.614 12.466-12.408 21.684-24.974 21.326l-18.834-.536c-12.585-.359-22.846-10.204-23.724-22.763l-.7-10.019c-.966-13.816 9.45-25.8 23.267-26.766a25.077 25.077 0 0 1 6.201.338z"/>
            <g transform="translate(5.917 134.953)">
                <ellipse cx="14.25" cy="4.713" fill="#E8C58F" rx="2.639" ry="2.618"/>
                <g transform="rotate(180 29.82 26.705)">
                    <ellipse cx="2.375" cy="14.4" fill="#E8C58F" rx="1.847" ry="1.833"/>
                    <g stroke="#E8C58F" stroke-linecap="round" stroke-width="1.44">
                        <path d="M3.43.262v6.55M6.732 3.537H.129"/>
                    </g>
                </g>
                <ellipse cx="2.375" cy="14.4" fill="#E8C58F" rx="1.847" ry="1.833"/>
                <g stroke="#E8C58F" stroke-linecap="round" stroke-width="1.44">
                    <path d="M3.43.262v6.55M6.732 3.537H.129"/>
                </g>
            </g>
            <g transform="translate(10.667 145.95)">
                <use fill="#FFE6BE" xlink:href="#q"/>
                <path stroke="#555" stroke-width="1.634"
                      d="M6.05 3.34c-.506.11-.867.559-.867 1.077v11.61c0 .589.477 1.066 1.065 1.066H42.23c.589 0 1.065-.477 1.065-1.065V4.414c0-.518-.36-.966-.865-1.078a84 84 0 0 0-18.135-1.999c-6.05 0-12.131.667-18.245 2.002z"/>
            </g>
            <g transform="translate(20.37 155.587)">
                <use fill="#F58695" xlink:href="#r"/>
                <path stroke="#555" stroke-width="1.667"
                      d="M.833 6.782h11.005V2.677a.607.607 0 0 0-.392-.567C9.177 1.256 7.462.833 6.336.833c-1.126 0-2.841.423-5.11 1.277a.606.606 0 0 0-.393.567v4.105z"/>
            </g>
            <g transform="translate(20.37 155.587)">
                <use fill="#F58695" xlink:href="#s"/>
                <path stroke="#555" stroke-width="1.667"
                      d="M16.843 6.782h11.005V2.677a.607.607 0 0 0-.393-.567C25.186 1.256 23.47.833 22.345.833c-1.126 0-2.841.423-5.11 1.277a.606.606 0 0 0-.392.567v4.105z"/>
            </g>
            <g transform="translate(10.667 145.95)">
                <use fill="#E8E8E8" xlink:href="#t"/>
                <path stroke="#555" stroke-width="1.634"
                      d="M3.32 30.105a4.252 4.252 0 0 0 4.173 3.433H40.63a4.252 4.252 0 0 0 4.172-3.433H3.32z"/>
            </g>
            <g transform="translate(10.667 145.95)">
                <use fill="#8EB0EA" xlink:href="#u"/>
                <path stroke="#555" stroke-width="1.634"
                      d="M24.117 15.735L2.913 18.846a2.452 2.452 0 0 0-2.096 2.426v9.044c0 .079.064.143.143.143h46.108c.079 0 .143-.064.143-.143v-9.047c0-1.216-.89-2.248-2.093-2.426l-21.001-3.108z"/>
            </g>
        </g>
    </g>
</svg>
