<svg xmlns="http://www.w3.org/2000/svg" width="170" height="306" viewBox="0 0 170 306">
    <defs>
        <linearGradient id="a" x1="89.03%" x2="8.321%" y1="2.894%" y2="100%">
            <stop offset="0%" stop-color="#FFF"/>
            <stop offset="100%" stop-color="#A1D9FF"/>
        </linearGradient>
        <linearGradient id="b" x1="21.366%" x2="77.322%" y1="6.649%" y2="93.14%">
            <stop offset="0%" stop-color="#FF622E"/>
            <stop offset="100%" stop-color="#FF822E"/>
        </linearGradient>
        <linearGradient id="c" x1="50%" x2="89.03%" y1="70.928%" y2="2.894%">
            <stop offset="0%" stop-color="#00C6FF"/>
            <stop offset="100%" stop-color="#007BCE"/>
        </linearGradient>
    </defs>
    <g fill="none" fill-rule="evenodd">
        <path fill="url(#a)" fill-opacity=".8"
              d="M253.591 101.559c-5.167 5.162-13.55 5.162-18.716 0-5.167-5.16-5.167-13.527 0-18.69 5.167-5.159 13.55-5.159 18.716 0 5.167 5.163 5.167 13.53 0 18.69z"
              transform="translate(-88)"/>
        <path stroke="url(#a)" stroke-width="3"
              d="M190.515 253.242c-43.572 43.536-114.264 43.536-157.836 0-43.572-43.51-43.572-114.074 0-157.61 43.572-43.51 114.264-43.51 157.836 0 43.572 43.536 43.572 114.1 0 157.61z"
              opacity=".521" transform="translate(-88)"/>
        <path fill="url(#b)" fill-opacity=".8"
              d="M188.982 225.887c-9.761 0-19.516 3.708-26.956 11.117-14.852 14.845-14.852 38.99 0 53.835 14.873 14.838 39.032 14.838 53.904 0 14.86-14.845 14.86-38.99 0-53.835-7.433-7.41-17.187-11.117-26.948-11.117m0 79.957c-10.758 0-21.51-4.082-29.699-12.273-16.377-16.341-16.377-42.952 0-59.3 16.378-16.361 43.02-16.361 59.39 0 16.378 16.348 16.378 42.959 0 59.3-8.182 8.19-18.94 12.273-29.691 12.273"
              opacity=".436" transform="translate(-88)"/>
        <path fill="url(#b)"
              d="M127.01 97c4.425 0 8.012 3.582 8.012 8s-3.587 8-8.011 8c-4.424 0-8.011-3.582-8.011-8s3.587-8 8.01-8"
              transform="translate(-88)"/>
        <path fill="url(#c)" fill-opacity=".8"
              d="M158 5.512a5.506 5.506 0 0 1-5.5 5.511 5.506 5.506 0 0 1-5.5-5.511A5.506 5.506 0 0 1 152.5 0c3.038 0 5.5 2.468 5.5 5.512"
              opacity=".418" transform="translate(-88)"/>
    </g>
</svg>
