<svg xmlns="http://www.w3.org/2000/svg" width="107" height="187" viewBox="0 0 107 187">
    <defs>
        <linearGradient id="a" x1="89.03%" x2="8.321%" y1="2.894%" y2="100%">
            <stop offset="0%" stop-color="#FFF"/>
            <stop offset="100%" stop-color="#A1D9FF"/>
        </linearGradient>
        <linearGradient id="b" x1="21.366%" x2="77.322%" y1="6.649%" y2="93.14%">
            <stop offset="0%" stop-color="#FF622E"/>
            <stop offset="100%" stop-color="#FF822E"/>
        </linearGradient>
        <linearGradient id="c" x1="50%" x2="89.03%" y1="70.928%" y2="2.894%">
            <stop offset="0%" stop-color="#00C6FF"/>
            <stop offset="100%" stop-color="#007BCE"/>
        </linearGradient>
    </defs>
    <g fill="none" fill-rule="evenodd">
        <path fill="url(#a)" fill-opacity=".8"
              d="M49.097 102.08a6.506 6.506 0 0 1-9.194 0 6.486 6.486 0 0 1 0-9.18 6.509 6.509 0 0 1 9.194 0 6.486 6.486 0 0 1 0 9.18z"/>
        <path stroke="url(#a)" stroke-width="3"
              d="M122.153 151.987c-26.565 26.542-69.664 26.542-96.23 0-26.564-26.527-26.564-69.549 0-96.092 26.566-26.527 69.665-26.527 96.23 0 26.565 26.543 26.565 69.565 0 96.092z"
              opacity=".521"/>
        <path fill="url(#b)" fill-opacity=".8"
              d="M66.512 157.436a14.07 14.07 0 0 0-9.96 4.108c-5.488 5.485-5.488 14.406 0 19.891 5.496 5.483 14.422 5.483 19.917 0 5.49-5.485 5.49-14.406 0-19.891a14.06 14.06 0 0 0-9.957-4.108m0 29.544a15.461 15.461 0 0 1-10.973-4.535c-6.052-6.038-6.052-15.87 0-21.91 6.051-6.046 15.895-6.046 21.944 0 6.051 6.04 6.051 15.872 0 21.91-3.023 3.027-6.998 4.535-10.971 4.535"
              opacity=".436"/>
        <path fill="url(#b)"
              d="M75.01 0c4.425 0 8.012 3.582 8.012 8s-3.587 8-8.011 8C70.587 16 67 12.418 67 8s3.587-8 8.01-8"/>
        <path fill="url(#c)" fill-opacity=".8"
              d="M11 47.512a5.506 5.506 0 0 1-5.5 5.511A5.506 5.506 0 0 1 0 47.512 5.506 5.506 0 0 1 5.5 42c3.038 0 5.5 2.468 5.5 5.512"
              opacity=".418"/>
    </g>
</svg>
