<svg xmlns:xlink="http://www.w3.org/1999/xlink" xmlns="http://www.w3.org/2000/svg" width="256" height="247"
     viewBox="0 0 256 247">
    <defs>
        <linearGradient id="a" x1="50%" x2="50%" y1="0%" y2="100%">
            <stop offset="0%" stop-color="#B4EC51"/>
            <stop offset="100%" stop-color="#429321"/>
        </linearGradient>
        <linearGradient id="b" x1="89.03%" x2="8.321%" y1="2.894%" y2="100%">
            <stop offset="0%" stop-color="#FFF"/>
            <stop offset="100%" stop-color="#A1D9FF"/>
        </linearGradient>
        <linearGradient id="c" x1="0%" y1="0%" y2="100%">
            <stop offset="0%" stop-color="#00C6FF"/>
            <stop offset="100%" stop-color="#007BCE"/>
        </linearGradient>
        <filter id="d" width="122.2%" height="122.2%" x="-11.1%" y="-8.3%" filterUnits="objectBoundingBox">
            <feOffset dy="2" in="SourceAlpha" result="shadowOffsetOuter1"/>
            <feGaussianBlur in="shadowOffsetOuter1" result="shadowBlurOuter1" stdDeviation="2"/>
            <feColorMatrix in="shadowBlurOuter1" result="shadowMatrixOuter1"
                           values="0 0 0 0 0 0 0 0 0 0 0 0 0 0 0 0 0 0 0.15 0"/>
            <feMerge>
                <feMergeNode in="shadowMatrixOuter1"/>
                <feMergeNode in="SourceGraphic"/>
            </feMerge>
        </filter>
        <linearGradient id="e" x1="50%" x2="50%" y1="0%" y2="100%">
            <stop offset="0%" stop-color="#F5515F"/>
            <stop offset="100%" stop-color="#9F041B"/>
        </linearGradient>
        <linearGradient id="h" x1="0%" x2="102%" y1="0%" y2="101%">
            <stop offset="0%" stop-color="#3023AE"/>
            <stop offset="100%" stop-color="#C86DD7"/>
        </linearGradient>
        <circle id="g" cx="37" cy="37" r="37"/>
        <filter id="f" width="121.6%" height="121.6%" x="-10.8%" y="-8.1%" filterUnits="objectBoundingBox">
            <feMorphology in="SourceAlpha" operator="dilate" radius="1" result="shadowSpreadOuter1"/>
            <feOffset dy="2" in="shadowSpreadOuter1" result="shadowOffsetOuter1"/>
            <feGaussianBlur in="shadowOffsetOuter1" result="shadowBlurOuter1" stdDeviation="2"/>
            <feComposite in="shadowBlurOuter1" in2="SourceAlpha" operator="out" result="shadowBlurOuter1"/>
            <feColorMatrix in="shadowBlurOuter1" values="0 0 0 0 0 0 0 0 0 0 0 0 0 0 0 0 0 0 0.15 0"/>
        </filter>
        <linearGradient id="i" x1="114.629%" x2="0%" y1="0%" y2="79%">
            <stop offset="0%" stop-color="#FF802E"/>
            <stop offset="100%" stop-color="#FF652E"/>
        </linearGradient>
        <linearGradient id="l" x1="0%" y1="0%" y2="100%">
            <stop offset="0%" stop-color="#00FFD9"/>
            <stop offset="100%" stop-color="#007BCE"/>
        </linearGradient>
        <circle id="k" cx="220" cy="120" r="18"/>
        <filter id="j" width="144.4%" height="144.4%" x="-22.2%" y="-16.7%" filterUnits="objectBoundingBox">
            <feMorphology in="SourceAlpha" operator="dilate" radius="1" result="shadowSpreadOuter1"/>
            <feOffset dy="2" in="shadowSpreadOuter1" result="shadowOffsetOuter1"/>
            <feGaussianBlur in="shadowOffsetOuter1" result="shadowBlurOuter1" stdDeviation="2"/>
            <feComposite in="shadowBlurOuter1" in2="SourceAlpha" operator="out" result="shadowBlurOuter1"/>
            <feColorMatrix in="shadowBlurOuter1" values="0 0 0 0 0 0 0 0 0 0 0 0 0 0 0 0 0 0 0.15 0"/>
        </filter>
        <linearGradient id="o" x1="114.629%" x2="0%" y1="0%" y2="79%">
            <stop offset="0%" stop-color="#C8205C"/>
            <stop offset="100%" stop-color="#F34985"/>
        </linearGradient>
        <circle id="n" cx="21.5" cy="99.5" r="19.5"/>
        <filter id="m" width="141%" height="141%" x="-20.5%" y="-15.4%" filterUnits="objectBoundingBox">
            <feMorphology in="SourceAlpha" operator="dilate" radius="1" result="shadowSpreadOuter1"/>
            <feOffset dy="2" in="shadowSpreadOuter1" result="shadowOffsetOuter1"/>
            <feGaussianBlur in="shadowOffsetOuter1" result="shadowBlurOuter1" stdDeviation="2"/>
            <feComposite in="shadowBlurOuter1" in2="SourceAlpha" operator="out" result="shadowBlurOuter1"/>
            <feColorMatrix in="shadowBlurOuter1" values="0 0 0 0 0 0 0 0 0 0 0 0 0 0 0 0 0 0 0.15 0"/>
        </filter>
    </defs>
    <g fill="none" fill-rule="evenodd">
        <g transform="translate(2 2)">
            <circle cx="119" cy="136" r="99" fill="url(#a)"/>
            <path fill="url(#b)" fill-opacity=".8"
                  d="M251.95 69.95a7.001 7.001 0 1 1-9.898-9.9 7.001 7.001 0 0 1 9.898 9.9z" opacity=".521"/>
            <path stroke="url(#c)" d="M87 17.5a6.5 6.5 0 1 1-13 0 6.5 6.5 0 0 1 13 0" transform="translate(33)"/>
            <g fill-rule="nonzero">
                <path fill="#625765" d="M72 244H41v-87h22.786"/>
                <g fill="#351B1B">
                    <path d="M50.468 205.503c-1.26 0-2.28-1.093-2.28-2.442v-5.535c0-1.348 1.02-2.441 2.28-2.441 1.259 0 2.279 1.093 2.279 2.441v5.535c0 1.349-1.02 2.442-2.28 2.442zM68.958 205.503c-1.26 0-2.28-1.093-2.28-2.442v-5.535c0-1.348 1.02-2.441 2.28-2.441 1.259 0 2.279 1.093 2.279 2.441v5.535c0 1.349-1.02 2.442-2.28 2.442zM59.713 205.503c-1.26 0-2.28-1.093-2.28-2.442v-5.535c0-1.348 1.02-2.441 2.28-2.441 1.259 0 2.279 1.093 2.279 2.441v5.535c0 1.349-1.02 2.442-2.28 2.442zM50.468 174.49c-1.26 0-2.28-1.093-2.28-2.441v-5.534c0-1.349 1.02-2.442 2.28-2.442 1.259 0 2.279 1.093 2.279 2.442v5.534c0 1.348-1.02 2.442-2.28 2.442zM68.958 174.49c-1.26 0-2.28-1.093-2.28-2.441v-5.534c0-1.349 1.02-2.442 2.28-2.442 1.259 0 2.279 1.093 2.279 2.442v5.534c0 1.348-1.02 2.442-2.28 2.442zM59.713 174.49c-1.26 0-2.28-1.093-2.28-2.441v-5.534c0-1.349 1.02-2.442 2.28-2.442 1.259 0 2.279 1.093 2.279 2.442v5.534c0 1.348-1.02 2.442-2.28 2.442zM50.468 189.996c-1.26 0-2.28-1.093-2.28-2.441v-5.535c0-1.348 1.02-2.441 2.28-2.441 1.259 0 2.279 1.093 2.279 2.441v5.535c0 1.348-1.02 2.441-2.28 2.441zM68.958 189.996c-1.26 0-2.28-1.093-2.28-2.441v-5.535c0-1.348 1.02-2.441 2.28-2.441 1.259 0 2.279 1.093 2.279 2.441v5.535c0 1.348-1.02 2.441-2.28 2.441zM59.713 189.996c-1.26 0-2.28-1.093-2.28-2.441v-5.535c0-1.348 1.02-2.441 2.28-2.441 1.259 0 2.279 1.093 2.279 2.441v5.535c0 1.348-1.02 2.441-2.28 2.441zM50.468 236.514c-1.26 0-2.28-1.093-2.28-2.441v-5.535c0-1.348 1.02-2.442 2.28-2.442 1.259 0 2.279 1.094 2.279 2.442v5.535c0 1.348-1.02 2.441-2.28 2.441zM68.958 236.514c-1.26 0-2.28-1.093-2.28-2.441v-5.535c0-1.348 1.02-2.442 2.28-2.442 1.259 0 2.279 1.094 2.279 2.442v5.535c0 1.348-1.02 2.441-2.28 2.441zM59.713 236.514c-1.26 0-2.28-1.093-2.28-2.441v-5.535c0-1.348 1.02-2.442 2.28-2.442 1.259 0 2.279 1.094 2.279 2.442v5.535c0 1.348-1.02 2.441-2.28 2.441zM50.468 221.008c-1.26 0-2.28-1.093-2.28-2.441v-5.535c0-1.349 1.02-2.442 2.28-2.442 1.259 0 2.279 1.093 2.279 2.442v5.535c0 1.348-1.02 2.441-2.28 2.441zM68.958 221.008c-1.26 0-2.28-1.093-2.28-2.441v-5.535c0-1.349 1.02-2.442 2.28-2.442 1.259 0 2.279 1.093 2.279 2.442v5.535c0 1.348-1.02 2.441-2.28 2.441zM59.713 221.008c-1.26 0-2.28-1.093-2.28-2.441v-5.535c0-1.349 1.02-2.442 2.28-2.442 1.259 0 2.279 1.093 2.279 2.442v5.535c0 1.348-1.02 2.441-2.28 2.441z"/>
                </g>
                <path fill="#C3DFAD" d="M135 243l-10.343-126H64v126"/>
                <g fill="#351B1B">
                    <path d="M103.425 183.948H72.403c-1.304 0-2.362-1.088-2.362-2.43 0-1.34 1.058-2.428 2.362-2.428h31.022c1.305 0 2.362 1.087 2.362 2.429 0 1.341-1.057 2.43-2.362 2.43zM113.033 159.458h-40.63c-1.304 0-2.362-1.087-2.362-2.429 0-1.341 1.058-2.43 2.362-2.43h40.63c1.304 0 2.362 1.089 2.362 2.43 0 1.342-1.058 2.43-2.362 2.43zM103.425 171.703H72.403c-1.304 0-2.362-1.087-2.362-2.429 0-1.342 1.058-2.43 2.362-2.43h31.022c1.305 0 2.362 1.088 2.362 2.43s-1.057 2.43-2.362 2.43zM113.033 134.968h-40.63c-1.304 0-2.362-1.087-2.362-2.429 0-1.341 1.058-2.43 2.362-2.43h40.63c1.304 0 2.362 1.089 2.362 2.43 0 1.342-1.058 2.43-2.362 2.43zM113.033 147.214h-40.63c-1.304 0-2.362-1.088-2.362-2.43 0-1.341 1.058-2.429 2.362-2.429h40.63c1.304 0 2.362 1.088 2.362 2.43 0 1.34-1.058 2.429-2.362 2.429zM92.244 228.069h11.181v4.859H92.244zM92.244 203.581h11.181v4.859H92.244zM92.244 215.825h11.181v4.859H92.244zM92.244 191.334h11.181v4.859H92.244z"/>
                </g>
                <path fill="#4A4A4A" d="M125 245V88h48v157"/>
                <g fill="#122429">
                    <path d="M125.083 102.021h47.187v4.776h-47.187zM125.083 119.353h47.187v4.776h-47.187zM125.083 136.682h47.187v4.776h-47.187zM125.083 154.013h47.187v4.776h-47.187zM146.212 171.342h26.058v4.776h-26.058z"/>
                </g>
                <path fill="#BDC6C6" d="M54 182h39v62H54z"/>
                <path fill="#625765" d="M157 184h42v60h-42z"/>
                <path fill="#94A2A2" d="M103 157h42v87h-42z"/>
                <g fill="#122429">
                    <path d="M145.267 189.217h11.844v4.904h-11.844zM145.267 207.009h11.844v4.904h-11.844zM145.267 224.805h11.844v4.904h-11.844z"/>
                </g>
                <g fill="#351B1B">
                    <path d="M64.41 199.156c-1.26 0-2.28-1.057-2.28-2.362v-5.355c0-1.304 1.02-2.362 2.28-2.362 1.259 0 2.279 1.058 2.279 2.362v5.355c0 1.305-1.02 2.362-2.28 2.362zM82.9 199.156c-1.26 0-2.28-1.057-2.28-2.362v-5.355c0-1.304 1.02-2.362 2.28-2.362 1.259 0 2.279 1.058 2.279 2.362v5.355c0 1.305-1.02 2.362-2.28 2.362zM73.655 199.156c-1.259 0-2.28-1.057-2.28-2.362v-5.355c0-1.304 1.021-2.362 2.28-2.362s2.279 1.058 2.279 2.362v5.355c0 1.305-1.02 2.362-2.28 2.362zM64.41 233.49c-1.26 0-2.28-1.058-2.28-2.363v-5.354c0-1.305 1.02-2.363 2.28-2.363 1.259 0 2.279 1.058 2.279 2.363v5.354c0 1.304-1.02 2.362-2.28 2.362zM82.9 233.49c-1.26 0-2.28-1.058-2.28-2.363v-5.354c0-1.305 1.02-2.363 2.28-2.363 1.259 0 2.279 1.058 2.279 2.363v5.354c0 1.304-1.02 2.362-2.28 2.362zM73.655 233.49c-1.259 0-2.28-1.058-2.28-2.363v-5.354c0-1.305 1.021-2.363 2.28-2.363s2.279 1.058 2.279 2.363v5.354c0 1.304-1.02 2.362-2.28 2.362zM64.41 216.323c-1.26 0-2.28-1.058-2.28-2.363v-5.354c0-1.305 1.02-2.362 2.28-2.362 1.259 0 2.279 1.057 2.279 2.362v5.354c0 1.305-1.02 2.363-2.28 2.363zM82.9 216.323c-1.26 0-2.28-1.058-2.28-2.363v-5.354c0-1.305 1.02-2.362 2.28-2.362 1.259 0 2.279 1.057 2.279 2.362v5.354c0 1.305-1.02 2.363-2.28 2.363zM73.655 216.323c-1.259 0-2.28-1.058-2.28-2.363v-5.354c0-1.305 1.021-2.362 2.28-2.362s2.279 1.057 2.279 2.362v5.354c0 1.305-1.02 2.363-2.28 2.363z"/>
                </g>
                <path fill="#A9A9A9" d="M166 191v53h28v-53z"/>
                <g fill="#351B1B">
                    <path d="M114.867 205.503c-1.447 0-2.62-1.093-2.62-2.442v-5.534c0-1.349 1.173-2.442 2.62-2.442s2.619 1.093 2.619 2.442v5.534c0 1.349-1.172 2.442-2.62 2.442zM136.116 205.503c-1.447 0-2.62-1.093-2.62-2.442v-5.534c0-1.349 1.173-2.442 2.62-2.442 1.446 0 2.619 1.093 2.619 2.442v5.534c0 1.349-1.173 2.442-2.62 2.442zM125.491 205.503c-1.447 0-2.619-1.093-2.619-2.442v-5.534c0-1.349 1.172-2.442 2.62-2.442 1.446 0 2.618 1.093 2.618 2.442v5.534c0 1.349-1.172 2.442-2.619 2.442zM114.867 174.491c-1.447 0-2.62-1.093-2.62-2.442v-5.534c0-1.349 1.173-2.442 2.62-2.442s2.619 1.093 2.619 2.442v5.534c0 1.348-1.172 2.442-2.62 2.442zM136.116 174.491c-1.447 0-2.62-1.093-2.62-2.442v-5.534c0-1.349 1.173-2.442 2.62-2.442 1.446 0 2.619 1.093 2.619 2.442v5.534c0 1.348-1.173 2.442-2.62 2.442zM125.491 174.491c-1.447 0-2.619-1.093-2.619-2.442v-5.534c0-1.349 1.172-2.442 2.62-2.442 1.446 0 2.618 1.093 2.618 2.442v5.534c0 1.348-1.172 2.442-2.619 2.442zM114.867 189.997c-1.447 0-2.62-1.093-2.62-2.442v-5.535c0-1.348 1.173-2.441 2.62-2.441s2.619 1.093 2.619 2.441v5.535c0 1.349-1.172 2.442-2.62 2.442zM136.116 189.997c-1.447 0-2.62-1.093-2.62-2.442v-5.535c0-1.348 1.173-2.441 2.62-2.441 1.446 0 2.619 1.093 2.619 2.441v5.535c0 1.349-1.173 2.442-2.62 2.442zM125.491 189.997c-1.447 0-2.619-1.093-2.619-2.442v-5.535c0-1.348 1.172-2.441 2.62-2.441 1.446 0 2.618 1.093 2.618 2.441v5.535c0 1.349-1.172 2.442-2.619 2.442zM114.867 236.515c-1.447 0-2.62-1.093-2.62-2.442v-5.534c0-1.349 1.173-2.442 2.62-2.442s2.619 1.093 2.619 2.442v5.534c0 1.349-1.172 2.442-2.62 2.442zM136.116 236.515c-1.447 0-2.62-1.093-2.62-2.442v-5.534c0-1.349 1.173-2.442 2.62-2.442 1.446 0 2.619 1.093 2.619 2.442v5.534c0 1.349-1.173 2.442-2.62 2.442zM125.491 236.515c-1.447 0-2.619-1.093-2.619-2.442v-5.534c0-1.349 1.172-2.442 2.62-2.442 1.446 0 2.618 1.093 2.618 2.442v5.534c0 1.349-1.172 2.442-2.619 2.442zM114.867 221.01c-1.447 0-2.62-1.094-2.62-2.443v-5.534c0-1.349 1.173-2.442 2.62-2.442s2.619 1.093 2.619 2.442v5.534c0 1.349-1.172 2.442-2.62 2.442zM136.116 221.01c-1.447 0-2.62-1.094-2.62-2.443v-5.534c0-1.349 1.173-2.442 2.62-2.442 1.446 0 2.619 1.093 2.619 2.442v5.534c0 1.349-1.173 2.442-2.62 2.442zM125.491 221.01c-1.447 0-2.619-1.094-2.619-2.443v-5.534c0-1.349 1.172-2.442 2.62-2.442 1.446 0 2.618 1.093 2.618 2.442v5.534c0 1.349-1.172 2.442-2.619 2.442z"/>
                </g>
                <g fill="#625765">
                    <path d="M159.103 233.062h32.266v4.905h-32.266zM159.103 221.744h32.266v4.905h-32.266zM159.103 210.426h32.266v4.905h-32.266zM159.103 199.108h32.266v4.905h-32.266z"/>
                </g>
            </g>
            <g fill-rule="nonzero" filter="url(#d)" transform="translate(142 18)">
                <circle cx="36" cy="36" r="36" fill="#FFF" stroke="url(#e)" stroke-width="2"/>
                <g fill="#FEE187">
                    <path d="M32.694 56.204H26.29c-3.243 0-5.881-2.666-5.881-5.943v-6.472a1.33 1.33 0 0 1 1.322-1.336c.73 0 1.323.599 1.323 1.336v6.472c0 1.803 1.451 3.27 3.236 3.27h6.404c.73 0 1.323.599 1.323 1.336a1.33 1.33 0 0 1-1.323 1.337zM51.624 38.866H48.98v-14.1c0-7.037-5.666-12.762-12.63-12.762-6.965 0-12.63 5.725-12.63 12.762v14.1h-2.646v-14.1c0-8.51 6.853-15.435 15.276-15.435s15.275 6.924 15.275 15.435v14.1z"/>
                </g>
                <path fill="#FFF"
                      d="M19.243 44.308h-2.486c-1.098 0-1.988-.763-1.988-1.704V32.165c0-.94.89-1.703 1.988-1.703h2.486c1.098 0 1.988.762 1.988 1.703v10.44c0 .94-.89 1.703-1.988 1.703z"/>
                <path fill="#D0D1D3"
                      d="M14.77 37.846v5.666c0 .95.89 1.719 1.987 1.719h2.486c1.098 0 1.988-.77 1.988-1.72v-5.665h-6.462z"/>
                <path fill="#E67069"
                      d="M23.202 48H19.26c-.95 0-1.722-.809-1.722-1.807v-15.77c0-.999.77-1.808 1.722-1.808h3.942c.95 0 1.721.81 1.721 1.807v15.771c0 .998-.77 1.807-1.721 1.807z"/>
                <path fill="#C3524B"
                      d="M17.538 37.846v8.34c0 1.002.77 1.814 1.721 1.814h3.943c.95 0 1.721-.812 1.721-1.814v-8.34h-7.385z"/>
                <path fill="#FFF"
                      d="M53.68 30.462h2.486c1.098 0 1.988.762 1.988 1.703v10.44c0 .94-.89 1.703-1.988 1.703H53.68c-1.098 0-1.988-.763-1.988-1.704V32.165c0-.94.89-1.703 1.988-1.703z"/>
                <path fill="#D0D1D3"
                      d="M51.692 37.846v5.666c0 .95.89 1.719 1.988 1.719h2.486c1.098 0 1.988-.77 1.988-1.719v-5.666h-6.462z"/>
                <path fill="#E67069"
                      d="M48.798 28.615h3.943c.95 0 1.72.81 1.72 1.808v15.77c0 .998-.77 1.807-1.72 1.807h-3.943c-.95 0-1.721-.809-1.721-1.807v-15.77c0-.998.77-1.808 1.72-1.808z"/>
                <path fill="#C3524B"
                      d="M47.077 37.846v8.34c0 1.002.77 1.814 1.72 1.814h3.944c.95 0 1.72-.812 1.72-1.814v-8.34h-7.384z"/>
            </g>
            <g fill-rule="nonzero">
                <g transform="translate(33)">
                    <use fill="#000" filter="url(#f)" xlink:href="#g"/>
                    <use fill="#FFF" fill-rule="evenodd" stroke="url(#h)" stroke-width="2" xlink:href="#g"/>
                </g>
                <path fill="#7C9CB4" d="M77.01 50L82 44.85 64.988 27 60 32.15z"/>
                <g fill="#A8BFD3">
                    <path d="M56.137 17.407l6.15 6.148-1.211 4.52-4.519 1.21-6.15-6.148a8.786 8.786 0 0 0 2.164 8.86 8.79 8.79 0 0 0 12.43 0c3.427-3.431 3.427-8.996 0-12.427a8.793 8.793 0 0 0-8.864-2.163zM78.544 45.543c-2.886 2.88-2.918 7.515-.08 10.354 2.832 2.835 7.469 2.8 10.353-.083 2.88-2.884 2.915-7.518.077-10.355-2.834-2.835-7.467-2.797-10.35.084zm10.16 3.053l-.784 2.08.784 2.082-2.025.92-.92 2.024-2.078-.783-2.08.78-.922-2.021-2.024-.92.784-2.081-.784-2.081 2.024-.916.921-2.024 2.081.78 2.078-.78.92 2.024 2.025.916z"/>
                </g>
            </g>
            <circle cx="12.5" cy="184.5" r="12.5" stroke="url(#i)"/>
        </g>
        <g fill-rule="nonzero" transform="translate(2 2)">
            <use fill="#000" filter="url(#j)" xlink:href="#k"/>
            <use fill="#FFF" fill-rule="evenodd" stroke="url(#l)" stroke-width="2" xlink:href="#k"/>
        </g>
        <g fill-rule="nonzero" transform="translate(2 2)">
            <use fill="#000" filter="url(#m)" xlink:href="#n"/>
            <use fill="#FFF" fill-rule="evenodd" stroke="url(#o)" stroke-width="2" xlink:href="#n"/>
        </g>
        <path fill="#D2D2D2" fill-rule="nonzero"
              d="M231.433 114.335l-1.77-1.768-1.738.852c-.47-.322-.956-.6-1.46-.84l-.129-1.934-2.413-.645-1.078 1.608.009.006a8.888 8.888 0 0 0-.853-.036 9.708 9.708 0 0 0-.854.035l.01-.005L220.08 110l-2.415.645-.13 1.937c-.502.235-.987.515-1.458.84l-1.74-.855-1.767 1.768.854 1.739c-.323.47-.602.957-.843 1.462l-1.932.127-.648 2.414 1.608 1.078c-.016.278-.031.563-.029.842a9.31 9.31 0 0 0 .036.855l-.006-.009L210 123.92l.646 2.414 1.933.13c.244.502.518.99.844 1.46l-.854 1.739 1.768 1.768 1.737-.854c.472.326.96.602 1.46.842l.13 1.933 2.415.648 1.077-1.61c.28.018.564.033.845.03.285.002.57-.012.851-.032l1.07 1.612 2.416-.646.129-1.931c.503-.244.988-.525 1.458-.847l1.737.855 1.771-1.768-.856-1.74c.321-.469.604-.957.841-1.46l1.935-.128.647-2.415-1.609-1.077-.004.009a11.343 11.343 0 0 0 .005-1.697l1.608-1.078-.647-2.414-1.937-.131a10.215 10.215 0 0 0-.84-1.459l.857-1.738zm-3.961 13.135a7.737 7.737 0 1 1-10.942-10.94 7.737 7.737 0 0 1 10.942 10.94z"/>
        <text fill="#FF4159" font-family="SignPainter-HouseScript, SignPainter" font-size="36" font-style="condensed"
              transform="translate(2 2)">
            <tspan x="16.382" y="108">i</tspan>
        </text>
    </g>
</svg>
