<svg xmlns="http://www.w3.org/2000/svg" width="320" height="1382" viewBox="0 0 320 1382">
    <defs>
        <linearGradient id="a" x1="97.692%" x2="2.487%" y1="22.188%" y2="77.866%">
            <stop offset="0%" stop-color="#FFB72F"/>
            <stop offset="100%" stop-color="#FF652E"/>
        </linearGradient>
        <linearGradient id="b" x1="0%" y1="0%" y2="100%">
            <stop offset="0%" stop-color="#00C6FF"/>
            <stop offset="100%" stop-color="#007BCE"/>
        </linearGradient>
    </defs>
    <g fill="none" fill-rule="evenodd">
        <path fill="url(#a)" d="M1718 261.227v333.338C1248.52 762.52 742.688 854 215.5 854A4534.19 4534.19 0 0 1 0 848.884V4.88A4534.691 4534.691 0 0 1 210.5 0C739.56 0 1247.111 92.13 1718 261.228z" transform="rotate(-180 455 419.5)"/>
        <path fill="url(#b)" d="M1552 851.173v381.018C1232.286 1346.652 887.782 1409 528.72 1409a3086.2 3086.2 0 0 1-145.72-3.436V662c330.59 123.502 688.476 191.02 1062.13 191.02 35.77 0 71.398-.62 106.87-1.847z" transform="translate(-808 -15)"/>
    </g>
</svg>
