<svg xmlns="http://www.w3.org/2000/svg" width="188" height="231" viewBox="0 0 188 231">
    <defs>
        <linearGradient id="a" x1="89.03%" x2="8.321%" y1="2.894%" y2="100%">
            <stop offset="0%" stop-color="#FFF"/>
            <stop offset="100%" stop-color="#A1D9FF"/>
        </linearGradient>
        <linearGradient id="b" x1="21.366%" x2="77.322%" y1="6.649%" y2="93.14%">
            <stop offset="0%" stop-color="#FF622E"/>
            <stop offset="100%" stop-color="#FF822E"/>
        </linearGradient>
        <linearGradient id="c" x1="89.03%" x2="9.008%" y1="2.894%" y2="99.174%">
            <stop offset="0%" stop-color="#61A2F1"/>
            <stop offset="100%" stop-color="#00C7F7"/>
        </linearGradient>
        <linearGradient id="d" x1="50%" x2="89.03%" y1="70.928%" y2="2.894%">
            <stop offset="0%" stop-color="#00C6FF"/>
            <stop offset="100%" stop-color="#007BCE"/>
        </linearGradient>
    </defs>
    <g fill="none" fill-rule="evenodd">
        <path fill="url(#a)" fill-opacity=".8"
              d="M230.77 70.2c28.307 28.283 28.307 74.126 0 102.392-28.307 28.284-74.233 28.284-102.54 0-28.307-28.266-28.307-74.109 0-102.392 28.307-28.267 74.233-28.267 102.54 0"
              opacity=".521"/>
        <path fill="url(#b)" fill-opacity=".8"
              d="M110.294 69.694a16.593 16.593 0 0 0-11.746 4.844c-6.472 6.469-6.472 16.99 0 23.459 6.48 6.466 17.008 6.466 23.489 0 6.475-6.469 6.475-16.99 0-23.46a16.582 16.582 0 0 0-11.743-4.843m0 34.841c-4.688 0-9.373-1.778-12.941-5.348-7.137-7.12-7.137-18.716 0-25.84 7.136-7.13 18.745-7.13 25.879 0 7.137 7.124 7.137 18.72 0 25.84-3.565 3.57-8.253 5.348-12.938 5.348"
              opacity=".248"/>
        <path fill="url(#b)"
              d="M122 0c6.628 0 12 5.365 12 11.984s-5.372 11.984-12 11.984c-6.627 0-12-5.365-12-11.984S115.373 0 122 0"/>
        <path fill="url(#c)" fill-opacity=".8"
              d="M31.185 104.906c-16.143 0-29.276 13.12-29.276 29.237 0 16.121 13.133 29.237 29.276 29.237s29.273-13.116 29.273-29.237c0-16.118-13.13-29.237-29.273-29.237m0 60.38C13.991 165.286 0 151.318 0 134.143 0 116.972 13.99 103 31.185 103c17.194 0 31.185 13.972 31.185 31.143 0 17.175-13.99 31.143-31.185 31.143"/>
        <path fill="url(#d)" fill-opacity=".8"
              d="M92.497 223.512c0 3.872-3.133 7.011-6.997 7.011s-6.997-3.139-6.997-7.011c0-3.873 3.133-7.012 6.997-7.012s6.997 3.14 6.997 7.012"/>
    </g>
</svg>
