<svg xmlns="http://www.w3.org/2000/svg" width="23" height="23" viewBox="0 0 23 23">
    <path fill="#68727C" fill-rule="evenodd" d="M20.266 0H2.734A2.73 2.73 0 0 0 0 2.728v17.544A2.73 2.73 0 0 0 2.734 23h17.532A2.73 2.73 0 0 0 23 20.272V2.728A2.73 2.73 0 0 0 20.266 0zm-3.734 3.593c0-.396.321-.718.718-.718h2.156c.397 0 .719.322.719.718V5.75a.719.719 0 0 1-.719.718H17.25a.719.719 0 0 1-.718-.718V3.593zm-5.005 3.521a4.418 4.418 0 0 1 4.423 4.413 4.418 4.418 0 0 1-4.423 4.412 4.418 4.418 0 0 1-4.423-4.412 4.418 4.418 0 0 1 4.423-4.413zm9.317 13.01a.72.72 0 0 1-.72.72H2.876a.72.72 0 0 1-.719-.72V9.345h2.875c-.374.538-.501 1.544-.501 2.183 0 3.848 3.14 6.98 6.997 6.98 3.858 0 6.997-3.132 6.997-6.98 0-.639-.091-1.629-.555-2.183h2.875v10.78z"/>
</svg>
