<svg xmlns="http://www.w3.org/2000/svg" width="26" height="25" viewBox="0 0 26 25">
    <path fill="none" fill-rule="nonzero" stroke="#009EE6" stroke-width="1.5"
          d="M24.95 15.063v8.854h-5.133v-8.261c0-2.076-.742-3.492-2.6-3.492-1.419 0-2.263.954-2.634 1.878-.136.33-.17.79-.17 1.251v8.624H9.277s.07-13.992 0-15.442h5.135v2.189l-.034.05h.034v-.05c.682-1.05 1.9-2.552 4.628-2.552 3.378 0 5.91 2.207 5.91 6.95zM3.907 1.03C2.149 1.031 1 2.183 1 3.7c0 1.482 1.116 2.67 2.838 2.67h.034c1.79 0 2.904-1.188 2.904-2.67-.033-1.516-1.113-2.668-2.87-2.668zM1.305 23.917h5.133V8.475H1.305v15.442z"/>
</svg>
