<svg xmlns="http://www.w3.org/2000/svg" width="160" height="40" viewBox="0 0 160 40">
    <g fill="#FEFEFE" fill-rule="evenodd">
        <path d="M159.689 39.816c-.693-.012-1.2-.163-1.485-.452-.297-.3-.446-.752-.446-1.355v-7.768l1.139-.2v7.78c0 .188.012.339.05.464a.703.703 0 0 0 .16.301.7.7 0 0 0 .297.176c.124.025.272.063.446.088l-.161.966zm-3.342 0c-.705-.012-1.2-.163-1.497-.452-.297-.3-.445-.752-.445-1.355v-7.768l1.138-.2v7.78c0 .188.025.339.05.464a.696.696 0 0 0 .16.301.7.7 0 0 0 .298.176c.123.025.272.063.457.088l-.16.966zm-4.455-7.755a.703.703 0 0 1-.52-.214c-.148-.137-.21-.313-.21-.552 0-.226.062-.414.21-.552.137-.137.31-.2.52-.2.21 0 .384.063.52.2.149.138.21.326.21.552 0 .239-.061.415-.21.552a.703.703 0 0 1-.52.214zm-.569 7.63h1.15v-6.463h-1.15v6.463zm-6.633-4.982h1.25c.297 0 .569-.025.841-.063.26-.038.483-.113.68-.226.187-.113.335-.251.446-.426.112-.176.174-.39.174-.653 0-.25-.062-.464-.174-.627a1.175 1.175 0 0 0-.47-.415c-.21-.1-.445-.175-.705-.225a4.749 4.749 0 0 0-.867-.076c-.297 0-.532 0-.705.013-.173 0-.334.012-.47.037v2.66zm0 .966v3.037c.086.012.198.012.321.025.1.012.235.012.372.025h.495a8.3 8.3 0 0 0 1.002-.063c.31-.05.594-.138.83-.25.234-.114.42-.277.569-.477.148-.214.21-.477.21-.791 0-.276-.05-.515-.149-.716a1.203 1.203 0 0 0-.47-.464 2.195 2.195 0 0 0-.718-.25 5.158 5.158 0 0 0-.928-.076h-1.534zm1.113 4.09c-.173 0-.358 0-.557-.011a4.7 4.7 0 0 1-.593-.038 7.699 7.699 0 0 1-.594-.063 3.25 3.25 0 0 1-.545-.1v-8.358c.16-.037.347-.075.545-.1.185-.026.383-.038.594-.063l.593-.038c.199 0 .372-.012.545-.012.495 0 .953.037 1.386.113.433.075.805.2 1.114.389.31.176.557.401.742.702.186.289.273.64.273 1.067 0 .477-.112.853-.334 1.167-.223.301-.52.527-.879.678.495.138.89.376 1.188.703.297.326.446.778.446 1.367 0 .866-.322 1.519-.941 1.946-.631.439-1.621.652-2.983.652zm-9.182-.902c.458 0 .804-.063 1.04-.189.222-.125.334-.326.334-.602a.787.787 0 0 0-.335-.665c-.222-.163-.581-.352-1.089-.565-.247-.1-.482-.2-.705-.301a2.43 2.43 0 0 1-.582-.364 1.621 1.621 0 0 1-.396-.514c-.099-.201-.148-.44-.148-.728 0-.578.21-1.03.631-1.368.408-.34.978-.502 1.695-.502.186 0 .372.012.545.025.186.025.346.05.507.075.149.038.285.063.409.1.123.026.21.063.272.088l-.21.992a2.627 2.627 0 0 0-.57-.2 3.487 3.487 0 0 0-.953-.114c-.309 0-.593.063-.829.201a.64.64 0 0 0-.359.603.69.69 0 0 0 .087.363.81.81 0 0 0 .247.301c.112.088.248.164.409.239.16.075.359.15.582.238.31.113.581.226.816.34.235.112.433.25.607.388.16.15.297.339.384.552.086.2.135.465.135.778 0 .59-.222 1.042-.655 1.355-.433.302-1.065.452-1.87.452-.568 0-1.001-.05-1.323-.138-.322-.1-.545-.176-.656-.213l.21-1.004c.137.05.334.126.631.226.285.1.656.15 1.139.15zm-4.022-6.802a.703.703 0 0 1-.52-.214c-.149-.137-.223-.313-.223-.552 0-.226.074-.414.223-.552.136-.137.31-.2.52-.2.198 0 .371.063.52.2.136.138.21.326.21.552a.742.742 0 0 1-.21.552.745.745 0 0 1-.52.214zm-.57 7.63h1.14v-6.463h-1.14v6.463zm-5.667-3.853c.012-.527-.124-.953-.384-1.292-.272-.327-.631-.502-1.102-.502-.26 0-.495.05-.692.163-.199.1-.372.238-.508.401a1.737 1.737 0 0 0-.322.578 2.408 2.408 0 0 0-.16.652h3.168zm-4.381.64c0-.577.086-1.08.247-1.506.161-.426.384-.778.644-1.067.272-.276.581-.489.94-.627a2.893 2.893 0 0 1 1.077-.213c.854 0 1.522.276 1.98.816.458.539.68 1.367.68 2.484v.189c0 .075 0 .15-.012.213h-4.368c.05.678.247 1.192.581 1.53.334.352.854.528 1.572.528.396 0 .73-.038 1.015-.1.272-.076.47-.151.618-.214l.161.979c-.148.063-.383.15-.73.226a4.938 4.938 0 0 1-1.188.125c-.557 0-1.04-.087-1.448-.25-.396-.176-.73-.402-.99-.703a2.89 2.89 0 0 1-.594-1.067 4.621 4.621 0 0 1-.185-1.343zm-2.018-3.388c.087 0 .21 0 .334.013.124.012.248.037.372.05.124.025.235.05.334.062.112.026.186.05.235.063l-.198 1.004a2.517 2.517 0 0 0-.446-.113 3.586 3.586 0 0 0-.804-.075c-.223 0-.433.025-.631.075-.21.038-.346.076-.42.088v5.434h-1.14v-6.187c.273-.1.607-.2 1.016-.289a6.275 6.275 0 0 1 1.348-.125zm-5.197 2.748c.012-.527-.124-.953-.384-1.292-.26-.327-.63-.502-1.101-.502-.26 0-.495.05-.693.163a1.61 1.61 0 0 0-.508.401 1.732 1.732 0 0 0-.322.578 2.951 2.951 0 0 0-.16.652h3.168zm-4.381.64c0-.577.086-1.08.247-1.506.161-.426.384-.778.656-1.067.26-.276.582-.489.928-.627a2.942 2.942 0 0 1 1.077-.213c.866 0 1.522.276 1.98.816.458.539.68 1.367.68 2.484v.189c0 .075 0 .15-.012.213h-4.368c.05.678.247 1.192.582 1.53.334.352.854.528 1.571.528.396 0 .743-.038 1.015-.1.272-.076.483-.151.619-.214l.16.979c-.148.063-.383.15-.73.226a4.87 4.87 0 0 1-1.188.125c-.557 0-1.04-.087-1.435-.25-.409-.176-.743-.402-1.003-.703a2.867 2.867 0 0 1-.581-1.067 4.235 4.235 0 0 1-.198-1.343zm-6.646 3.213v-9.45l1.139-.2v3.312c.21-.087.445-.15.68-.2.248-.038.483-.063.718-.063.507 0 .928.075 1.262.213.335.151.607.352.805.615.198.264.346.577.42.941.087.364.124.766.124 1.205v3.627h-1.138v-3.376c0-.402-.025-.74-.074-1.03-.063-.275-.15-.501-.273-.677a.968.968 0 0 0-.482-.376c-.21-.088-.458-.126-.768-.126-.124 0-.247.013-.371.026-.136.024-.26.037-.384.062a1.922 1.922 0 0 0-.309.063c-.1.025-.16.05-.21.063v5.37h-1.139zm-3.86-6.463h2.412v.966h-2.413v2.987c0 .326.025.59.074.803.05.213.124.377.223.502.087.113.21.2.359.25.148.051.321.076.52.076.346 0 .618-.038.829-.113.21-.087.346-.138.433-.175l.222.966c-.11.05-.321.125-.606.213a3.306 3.306 0 0 1-.977.126c-.433 0-.793-.05-1.077-.164a1.545 1.545 0 0 1-.68-.501c-.174-.226-.285-.502-.36-.829-.074-.326-.099-.715-.099-1.141V31.42l1.14-.2v2.007zm-6.746 2.61c.013-.527-.111-.953-.383-1.292-.26-.327-.631-.502-1.09-.502-.272 0-.494.05-.693.163-.21.1-.37.238-.52.401a1.737 1.737 0 0 0-.321.578 2.927 2.927 0 0 0-.148.652h3.155zm-4.368.64c0-.577.074-1.08.235-1.506.173-.426.383-.778.656-1.067a2.71 2.71 0 0 1 .928-.627 3.006 3.006 0 0 1 1.089-.213c.854 0 1.51.276 1.968.816.458.539.693 1.367.693 2.484v.189c0 .075-.013.15-.013.213h-4.368c.05.678.235 1.192.569 1.53.334.352.866.528 1.572.528.408 0 .742-.038 1.014-.1.273-.076.483-.151.62-.214l.16.979c-.136.063-.384.15-.73.226a4.87 4.87 0 0 1-1.188.125c-.557 0-1.027-.087-1.436-.25-.408-.176-.742-.402-1.002-.703a2.871 2.871 0 0 1-.582-1.067 4.621 4.621 0 0 1-.185-1.343zm-2.03-3.388c.1 0 .21 0 .334.013.136.012.26.037.384.05.111.025.235.05.334.062.099.026.173.05.223.063l-.198 1.004a2.255 2.255 0 0 0-.446-.113c-.21-.05-.47-.075-.804-.075-.21 0-.421.025-.631.075-.21.038-.347.076-.409.088v5.434h-1.138v-6.187c.26-.1.606-.2 1.002-.289a6.353 6.353 0 0 1 1.35-.125zm-5.185 2.748c0-.527-.124-.953-.396-1.292-.26-.327-.631-.502-1.09-.502-.26 0-.494.05-.692.163a1.76 1.76 0 0 0-.841.979 2.927 2.927 0 0 0-.15.652h3.169zm-4.381.64c0-.577.074-1.08.247-1.506a3.14 3.14 0 0 1 .644-1.067c.272-.276.582-.489.928-.627a3.005 3.005 0 0 1 1.089-.213c.854 0 1.51.276 1.968.816.458.539.693 1.367.693 2.484v.189c0 .075 0 .15-.013.213h-4.368c.05.678.235 1.192.582 1.53.334.352.854.528 1.559.528.408 0 .742-.038 1.014-.1.273-.076.483-.151.62-.214l.16.979c-.136.063-.383.15-.73.226a4.873 4.873 0 0 1-1.188.125 3.86 3.86 0 0 1-1.435-.25c-.409-.176-.743-.402-1.003-.703a2.876 2.876 0 0 1-.582-1.067 4.632 4.632 0 0 1-.185-1.343zm-6.658 3.213v-9.45l1.15-.2v3.312c.211-.087.434-.15.681-.2.235-.038.47-.063.718-.063.508 0 .928.075 1.263.213.333.151.606.352.804.615.198.264.334.577.42.941.087.364.124.766.124 1.205v3.627h-1.138v-3.376c0-.402-.037-.74-.087-1.03a1.68 1.68 0 0 0-.26-.677.998.998 0 0 0-.495-.376c-.198-.088-.458-.126-.754-.126-.124 0-.248.013-.384.026-.136.024-.26.037-.372.062a2.084 2.084 0 0 0-.321.063c-.1.025-.161.05-.198.063v5.37H70.51zm-6.67-5.848a62.543 62.543 0 0 1-1.04 3.087c-.36.954-.706 1.87-1.052 2.76h-1.2a42.705 42.705 0 0 1-1.14-4.015 73.234 73.234 0 0 1-.927-4.606h1.25c.111.653.235 1.293.358 1.946.125.652.248 1.28.384 1.882.124.615.26 1.192.384 1.744.136.565.272 1.08.408 1.544.322-.866.68-1.82 1.04-2.861a57.84 57.84 0 0 0 1.04-3.226h1.027a57.32 57.32 0 0 0 1.04 3.226c.37 1.041.73 1.995 1.051 2.86.136-.463.26-.966.396-1.53.136-.552.26-1.13.383-1.745.137-.602.26-1.242.384-1.882.112-.652.235-1.305.347-1.958h1.212a82.945 82.945 0 0 1-.928 4.606 46.771 46.771 0 0 1-1.138 4.016h-1.188a86.042 86.042 0 0 1-1.065-2.761c-.333-.941-.68-1.97-1.027-3.087zM102.306 27.568V15.963c0-2.12-.324-3.612-.945-4.46-.635-.849-1.687-1.273-3.172-1.273-.796 0-1.633.232-2.496.711-.864.493-1.539 1.082-1.998 1.793v14.834h-3.508V7.63h2.388l1.107 2.572c1.16-1.97 3.036-2.955 5.655-2.955 4.304 0 6.464 2.654 6.464 7.978v12.343h-3.495zm-21.189 0V10.6H78.42V7.63h6.207v19.94h-3.509zM83.047.076c.607 0 1.12.219 1.539.643.418.438.634.944.634 1.546 0 .602-.216 1.123-.634 1.56a2.085 2.085 0 0 1-1.539.644c-.58 0-1.093-.22-1.511-.644a2.188 2.188 0 0 1-.634-1.56c0-.602.202-1.135.62-1.546a2.074 2.074 0 0 1 1.525-.643zM62.13 13.979v10.442c1.269.109 2.227.177 2.902.177 2.294 0 3.967-.437 5.033-1.313 1.053-.876 1.58-2.272 1.58-4.201 0-1.78-.5-3.08-1.512-3.928-.999-.848-2.686-1.272-5.047-1.272l-2.956.095zm0-10.728v7.854c.77.07 1.741.11 2.875.11 3.468 0 5.21-1.437 5.21-4.31 0-2.532-1.593-3.791-4.792-3.791-1.228 0-2.321.04-3.293.137zm4.008 24.317h-7.692V.281c3.28-.15 5.641-.233 7.085-.233 2.659 0 4.723.575 6.181 1.739 1.471 1.163 2.186 2.819 2.186 4.98 0 1.26-.459 2.423-1.39 3.463-.93 1.04-1.957 1.697-3.077 1.957 2.12.52 3.671 1.382 4.643 2.586.971 1.204 1.444 2.846 1.444 4.913 0 2.408-.864 4.31-2.591 5.747-1.741 1.423-4.009 2.135-6.789 2.135zM122.505 22.94c-1.03.846-2.647 1.269-4.864 1.269-.652 0-1.577-.066-2.803-.172V13.949l2.855-.092c2.282 0 3.899.41 4.877 1.23.978.819 1.46 2.075 1.46 3.794 0 1.864-.508 3.212-1.525 4.059zm-7.667-19.357a32.89 32.89 0 0 1 3.181-.131c3.09 0 4.629 1.216 4.629 3.662 0 2.776-1.682 4.165-5.046 4.165-1.095 0-2.02-.04-2.764-.106v-7.59zm11.87 10.857c1 1.237 1.506 2.927 1.506 5.023 0 2.444-.9 4.426-2.676 5.892-1.743 1.436-4.045 2.164-6.84 2.164h-7.862V.293l.422-.02c3.35-.153 5.532-.225 6.865-.225 2.67 0 4.772.598 6.249 1.776 1.511 1.207 2.278 2.942 2.278 5.158 0 1.335-.49 2.56-1.456 3.639-.6.67-1.244 1.186-1.926 1.546 1.5.535 2.653 1.296 3.44 2.273zM136.85.828c.493.516.74 1.12.74 1.804a2.55 2.55 0 0 1-.735 1.811 2.485 2.485 0 0 1-1.806.759c-.676 0-1.29-.26-1.775-.754a2.5 2.5 0 0 1-.74-1.816c0-.714.253-1.339.731-1.809a2.428 2.428 0 0 1 1.784-.748c.692 0 1.315.26 1.801.753zm-6.716 6.545h6.87V27.52h-4.262V11.125h-2.608V7.373zm18.606 16.374h.441v3.822h-.441c-4.628 0-6.975-2.04-6.975-6.063V0h4.261v20.941c0 .901.245 1.58.747 2.074.5.493 1.144.732 1.967.732zm10.717 0h.442v3.822h-.442c-4.627 0-6.974-2.04-6.974-6.063V0h4.261v20.941c0 .901.245 1.58.747 2.074.5.493 1.144.732 1.966.732zM22.531 11.191a80.729 80.729 0 0 1 1.79-2.18c.3-.392.565-.634.761-.772a3.59 3.59 0 0 1 1.212-.508 6.773 6.773 0 0 1 1.709-.138c.692.035 1.419.138 2.193.311.9.208 1.616.473 2.146.808.532.31.797.668.832 1.015.034.369-.185.83-.658 1.395-.543.67-1.109 1.35-1.674 2.018-2.77-.657-5.54-1.303-8.31-1.949M9.418 8.804c.67-.727 1.339-1.465 2.008-2.18.346-.392.623-.634.843-.773.38-.23.796-.403 1.27-.507.461-.116 1.038-.162 1.708-.127.692.011 1.408.127 2.158.3.89.207 1.582.473 2.066.807.497.312.74.669.727 1.038-.01.346-.276.807-.796 1.373-.612.68-1.235 1.349-1.858 2.03-2.713-.646-5.414-1.315-8.126-1.961M0 11.054C4.598 5.53 13.193-5.59 24.747 3.463c5.46-2.584 20.995 1.028 15.387 7.739-2.176 2.604-5.622 5.898-8.034 8.193-11.058-2.364-21.042-5.979-32.1-8.343M46.438 24.542L32.4 39.7s-10.584-3.13-15.72-4.655c-4.156-1.23-8.312-2.462-12.467-3.693l-.797-3.612 2.92-3.095 5.391 1.595c-1.027 1.102-2.066 2.204-3.093 3.306-.185.2-.104.434.208.528.288.082.692-.012.889-.211a850.596 850.596 0 0 1 3.081-3.295l2.92.856c-1.038 1.102-2.065 2.204-3.093 3.307-.196.199-.104.433.196.527.3.094.704 0 .889-.211 1.028-1.09 2.066-2.193 3.094-3.295l3.024.903c-1.027 1.09-2.055 2.193-3.094 3.295-.184.199-.092.434.208.527.3.094.693-.012.889-.21 1.027-1.091 2.066-2.193 3.093-3.295l2.886.856c-1.027 1.102-2.066 2.204-3.093 3.294-.197.211-.104.445.196.528.3.094.704 0 .889-.2l3.105-3.294 2.908.856c-1.039 1.102-2.066 2.204-3.105 3.306-.184.2-.092.434.208.528.3.082.693 0 .889-.211 1.027-1.09 2.066-2.193 3.094-3.295l2.388.703-3.104 3.295c-.197.211-.093.446.196.54.3.082.704-.012.889-.212l3.105-3.294h.023l9.514-10.128 4.512 2.3zM3.742 27.74l.797 3.612 1.8-2.665-2.597-.947z"/>
        <path d="M46.438 14.881L32.4 30.037s-10.584-3.13-15.72-4.654L4.212 21.689l-.797-3.611 2.92-3.095 5.391 1.595c-1.027 1.102-2.066 2.204-3.093 3.306-.185.2-.104.434.208.528.288.081.692-.012.889-.211a850.596 850.596 0 0 1 3.081-3.295l2.92.856c-1.038 1.102-2.065 2.204-3.093 3.306-.196.2-.104.434.196.527.3.094.704 0 .889-.21 1.028-1.09 2.066-2.193 3.094-3.295l3.024.903c-1.027 1.09-2.055 2.192-3.094 3.294-.184.2-.092.434.208.528.3.094.693-.012.889-.211 1.027-1.09 2.066-2.192 3.093-3.294l2.886.855c-1.027 1.102-2.066 2.204-3.093 3.295-.197.21-.104.445.196.527.3.094.704 0 .889-.2l3.105-3.294 2.908.857c-1.039 1.102-2.066 2.204-3.105 3.306-.184.199-.092.433.208.527.3.082.693 0 .889-.21 1.027-1.091 2.066-2.193 3.094-3.295l2.388.703-3.104 3.294c-.197.212-.093.446.196.54.3.082.704-.012.889-.211l3.105-3.295h.023l9.514-10.127 4.512 2.3zM3.785 18.014l.797 3.611 1.801-2.664-2.598-.947z"/>
    </g>
</svg>