<svg xmlns="http://www.w3.org/2000/svg" width="161" height="40" viewBox="0 0 161 40">
    <g fill="none" fill-rule="evenodd">
        <path fill="#CECECE" d="M160.687 39.816c-.697-.012-1.208-.163-1.494-.452-.3-.301-.449-.752-.449-1.355v-7.767l1.146-.201v7.78c0 .188.012.339.05.464a.704.704 0 0 0 .162.301.702.702 0 0 0 .299.176c.124.025.273.063.448.088l-.162.966zm-3.362 0c-.71-.012-1.208-.163-1.507-.452-.299-.301-.448-.752-.448-1.355v-7.767l1.145-.201v7.78c0 .188.025.339.05.464a.697.697 0 0 0 .162.301.702.702 0 0 0 .299.176c.124.025.274.063.46.088l-.161.966zm-4.483-7.755a.71.71 0 0 1-.523-.213c-.15-.138-.212-.314-.212-.553 0-.225.062-.413.212-.552a.7.7 0 0 1 .523-.2.7.7 0 0 1 .523.2c.15.139.211.327.211.552 0 .239-.062.415-.211.553a.71.71 0 0 1-.523.213zm-.573 7.63h1.158v-6.463h-1.158v6.463zm-6.675-4.982h1.258c.299 0 .572-.025.847-.063.261-.037.485-.113.684-.226.188-.113.336-.25.449-.426.112-.176.174-.39.174-.653 0-.25-.062-.464-.174-.628a1.179 1.179 0 0 0-.473-.413 2.94 2.94 0 0 0-.71-.227 4.808 4.808 0 0 0-.872-.075c-.299 0-.535 0-.71.013-.174 0-.336.012-.473.038v2.66zm0 .966v3.037c.087.012.2.012.324.025.1.012.236.012.373.025h.498c.362 0 .698-.025 1.01-.063.31-.05.597-.138.833-.25.237-.114.424-.277.574-.477.149-.214.211-.478.211-.791 0-.276-.05-.515-.15-.715a1.21 1.21 0 0 0-.473-.465c-.199-.113-.435-.2-.722-.25a5.192 5.192 0 0 0-.934-.076h-1.544zm1.12 4.091c-.174 0-.36 0-.56-.013-.199 0-.398-.012-.597-.037a7.955 7.955 0 0 1-.598-.063c-.2-.025-.386-.05-.548-.1v-8.358c.162-.038.349-.075.548-.1.187-.025.386-.038.598-.063l.597-.038c.2 0 .374-.012.548-.012.498 0 .959.037 1.395.113.436.075.81.2 1.121.389.311.176.56.401.747.702.187.289.274.64.274 1.067 0 .477-.112.853-.336 1.167a2.079 2.079 0 0 1-.884.678c.498.138.896.376 1.195.703.299.326.449.778.449 1.368 0 .865-.324 1.518-.947 1.945-.635.438-1.632.652-3.001.652zm-9.24-.903c.461 0 .81-.063 1.047-.189.224-.125.336-.326.336-.602a.785.785 0 0 0-.336-.665c-.224-.163-.586-.352-1.096-.565-.249-.1-.486-.2-.71-.3a2.467 2.467 0 0 1-.585-.365 1.62 1.62 0 0 1-.399-.515c-.1-.2-.15-.439-.15-.727 0-.578.212-1.03.636-1.368.41-.339.984-.502 1.706-.502.187 0 .374.012.548.025.187.025.349.05.51.075.15.038.287.063.412.1.124.026.211.063.274.088l-.212.992a2.652 2.652 0 0 0-.573-.201 3.53 3.53 0 0 0-.96-.113c-.31 0-.596.063-.833.201a.639.639 0 0 0-.361.602c0 .138.024.264.087.364.05.113.137.214.249.302.112.087.249.162.41.238.162.075.362.15.586.238.312.113.585.226.822.339.237.113.436.251.61.389.162.15.299.339.386.552.087.201.137.465.137.778 0 .59-.224 1.042-.66 1.356-.436.3-1.07.451-1.88.451-.573 0-1.009-.05-1.333-.138-.324-.1-.548-.175-.66-.213l.212-1.004c.137.05.336.126.635.226.287.1.66.15 1.146.15zm-4.046-6.802a.71.71 0 0 1-.523-.213c-.15-.138-.225-.314-.225-.553 0-.225.075-.413.225-.552a.7.7 0 0 1 .523-.2c.199 0 .373.062.523.2a.761.761 0 0 1 .211.552.74.74 0 0 1-.211.553.752.752 0 0 1-.523.213zm-.573 7.63H134v-6.463h-1.145v6.463zm-5.704-3.853c.013-.527-.124-.954-.386-1.292-.274-.327-.635-.502-1.108-.502a1.4 1.4 0 0 0-.697.163c-.2.1-.374.238-.51.402a1.728 1.728 0 0 0-.325.577 2.397 2.397 0 0 0-.162.652h3.188zm-4.408.64c0-.577.087-1.079.25-1.506a3.34 3.34 0 0 1 .647-1.066c.273-.276.585-.49.946-.628.349-.138.71-.213 1.083-.213.86 0 1.532.276 1.993.815.46.54.685 1.369.685 2.485v.189c0 .075 0 .15-.013.213h-4.396c.05.677.25 1.192.586 1.531.336.351.859.527 1.581.527a4.77 4.77 0 0 0 1.021-.1c.274-.076.474-.151.623-.214l.162.98c-.15.061-.386.15-.735.225a4.998 4.998 0 0 1-1.195.125c-.56 0-1.046-.088-1.457-.25-.399-.176-.735-.402-.996-.703a2.88 2.88 0 0 1-.598-1.067 4.591 4.591 0 0 1-.187-1.343zm-2.03-3.388c.087 0 .212 0 .336.013.125.012.25.037.374.05.125.025.237.05.336.062.113.026.187.05.237.063l-.2 1.004a2.518 2.518 0 0 0-.448-.113 3.63 3.63 0 0 0-.81-.075c-.223 0-.435.025-.634.075-.212.038-.349.076-.424.088v5.434h-1.145v-6.187c.274-.1.61-.2 1.02-.289a6.351 6.351 0 0 1 1.358-.125zm-5.23 2.748c.012-.527-.125-.954-.386-1.292-.262-.327-.635-.502-1.108-.502-.262 0-.498.05-.698.163-.199.1-.373.238-.51.402-.137.162-.25.35-.324.577a2.938 2.938 0 0 0-.162.652h3.188zm-4.408.64c0-.577.087-1.079.249-1.506.162-.426.386-.778.66-1.066a2.62 2.62 0 0 1 .934-.628 2.976 2.976 0 0 1 1.083-.213c.872 0 1.532.276 1.993.815.46.54.685 1.369.685 2.485v.189c0 .075 0 .15-.013.213h-4.396c.05.677.25 1.192.586 1.531.336.351.859.527 1.58.527.4 0 .748-.038 1.022-.1.274-.076.486-.151.623-.214l.162.98c-.15.061-.387.15-.735.225a4.929 4.929 0 0 1-1.196.125c-.56 0-1.046-.088-1.444-.25-.411-.176-.747-.402-1.009-.703a2.857 2.857 0 0 1-.585-1.067 4.208 4.208 0 0 1-.2-1.343zm-6.687 3.213v-9.45l1.145-.2v3.312a3.93 3.93 0 0 1 .685-.2c.25-.038.486-.063.722-.063.51 0 .934.075 1.27.213.337.15.61.352.81.615.2.264.349.577.423.942.087.363.125.765.125 1.204v3.627h-1.146v-3.376a6.1 6.1 0 0 0-.074-1.029c-.063-.276-.15-.502-.275-.677a.973.973 0 0 0-.485-.377c-.212-.088-.46-.126-.772-.126-.125 0-.25.013-.374.025-.137.026-.261.038-.386.063a1.98 1.98 0 0 0-.311.063c-.1.025-.162.05-.212.063v5.37h-1.145zm-3.886-6.463h2.428v.966h-2.428v2.987c0 .326.025.59.075.803.05.213.124.377.224.502.087.113.212.2.361.251.15.05.324.075.523.075.349 0 .623-.038.834-.113.212-.087.35-.138.436-.176l.224.967a6.16 6.16 0 0 1-.61.213c-.286.088-.61.126-.983.126-.436 0-.798-.05-1.084-.163a1.557 1.557 0 0 1-.685-.502c-.174-.226-.286-.502-.36-.829-.076-.326-.1-.715-.1-1.142v-5.772l1.145-.2v2.007zm-6.786 2.61c.012-.527-.113-.954-.387-1.292-.261-.327-.635-.502-1.095-.502-.275 0-.499.05-.698.163a1.67 1.67 0 0 0-.523.402 1.728 1.728 0 0 0-.324.577 2.913 2.913 0 0 0-.149.652h3.176zm-4.396.64c0-.577.074-1.079.236-1.506.175-.426.386-.778.66-1.066.274-.276.585-.49.934-.628a3.041 3.041 0 0 1 1.096-.213c.86 0 1.52.276 1.98.815.46.54.697 1.369.697 2.485v.189c0 .075-.012.15-.012.213h-4.396c.05.677.237 1.192.573 1.531.336.351.871.527 1.582.527.41 0 .746-.038 1.02-.1.275-.076.486-.151.623-.214l.162.98c-.137.061-.386.15-.735.225a4.929 4.929 0 0 1-1.195.125c-.56 0-1.034-.088-1.445-.25-.41-.176-.747-.402-1.009-.703a2.861 2.861 0 0 1-.585-1.067 4.591 4.591 0 0 1-.186-1.343zm-2.043-3.388c.1 0 .212 0 .336.013.137.012.262.037.387.05.111.025.236.05.336.062.1.026.174.05.224.063l-.2 1.004a2.258 2.258 0 0 0-.448-.113 3.557 3.557 0 0 0-.81-.075c-.211 0-.423.025-.634.075-.212.038-.349.076-.411.088v5.434H84.91v-6.187c.262-.1.61-.2 1.009-.289a6.43 6.43 0 0 1 1.357-.125zm-5.218 2.748c0-.527-.124-.954-.398-1.292-.262-.327-.635-.502-1.096-.502-.261 0-.498.05-.697.163-.2.1-.374.238-.511.402-.15.162-.249.35-.336.577a2.913 2.913 0 0 0-.15.652h3.188zm-4.408.64c0-.577.075-1.079.25-1.506.161-.426.373-.778.647-1.066.274-.276.585-.49.934-.628a3.04 3.04 0 0 1 1.095-.213c.86 0 1.52.276 1.98.815.461.54.698 1.369.698 2.485v.189c0 .075 0 .15-.013.213h-4.395c.05.677.236 1.192.585 1.531.336.351.86.527 1.569.527.41 0 .747-.038 1.02-.1.275-.076.487-.151.624-.214l.162.98c-.138.061-.387.15-.735.225a4.932 4.932 0 0 1-1.195.125 3.913 3.913 0 0 1-1.445-.25c-.41-.176-.747-.402-1.009-.703a2.866 2.866 0 0 1-.585-1.067 4.602 4.602 0 0 1-.187-1.343zm-6.7 3.213v-9.45l1.158-.2v3.312c.212-.087.436-.15.685-.2.237-.038.474-.063.723-.063.51 0 .934.075 1.27.213.336.15.61.352.81.615.199.264.336.577.423.942.087.363.124.765.124 1.204v3.627H75v-3.376c0-.402-.038-.74-.087-1.029a1.672 1.672 0 0 0-.262-.677 1.004 1.004 0 0 0-.498-.377c-.2-.088-.461-.126-.76-.126-.124 0-.249.013-.386.025-.137.026-.261.038-.374.063-.124.013-.224.038-.323.063-.1.025-.162.05-.2.063v5.37h-1.158zm-6.712-5.848a62.385 62.385 0 0 1-1.046 3.087c-.36.953-.71 1.87-1.058 2.76h-1.208a42.493 42.493 0 0 1-1.146-4.015 72.878 72.878 0 0 1-.934-4.605h1.258c.112.652.237 1.292.361 1.944.125.653.25 1.28.386 1.883.125.615.262 1.192.386 1.744.137.565.274 1.08.411 1.544.324-.866.685-1.82 1.046-2.862.374-1.04.722-2.12 1.046-3.224h1.034a57.054 57.054 0 0 0 1.046 3.224c.373 1.042.734 1.996 1.058 2.862.137-.464.262-.966.399-1.531.137-.552.261-1.13.386-1.744.137-.603.261-1.243.386-1.883.112-.652.236-1.305.349-1.957h1.22a82.55 82.55 0 0 1-.934 4.605 46.539 46.539 0 0 1-1.146 4.016h-1.195a85.693 85.693 0 0 1-1.071-2.76 80.636 80.636 0 0 1-1.034-3.088z"/>
        <path fill="#FF732E" d="M102.945 27.568V15.964c0-2.121-.326-3.613-.95-4.462-.64-.848-1.698-1.272-3.192-1.272-.801 0-1.643.232-2.512.712-.87.492-1.548 1.08-2.01 1.792v14.834h-3.53V7.63h2.403l1.113 2.572c1.168-1.97 3.056-2.955 5.69-2.955 4.332 0 6.505 2.654 6.505 7.978v12.343h-3.517zm-21.32 0V10.6h-2.716V7.63h6.246v19.94h-3.53zM83.566.076c.61 0 1.126.219 1.548.643.42.438.638.944.638 1.547a2.18 2.18 0 0 1-.638 1.56 2.103 2.103 0 0 1-1.548.642c-.584 0-1.1-.218-1.522-.643a2.18 2.18 0 0 1-.638-1.56c0-.602.204-1.135.625-1.546.42-.424.937-.643 1.535-.643zm-21.05 13.903v10.442c1.277.11 2.241.178 2.92.178 2.309 0 3.993-.438 5.065-1.314 1.06-.876 1.59-2.272 1.59-4.201 0-1.78-.503-3.08-1.522-3.928-1.004-.848-2.702-1.272-5.078-1.272l-2.975.095zm0-10.728v7.855c.775.068 1.752.11 2.893.11 3.49 0 5.242-1.438 5.242-4.311 0-2.532-1.602-3.791-4.82-3.791-1.237 0-2.337.04-3.315.137zm4.034 24.317h-7.74V.281C62.11.131 64.486.049 65.94.049c2.675 0 4.753.574 6.22 1.738 1.48 1.163 2.199 2.818 2.199 4.98 0 1.26-.462 2.423-1.398 3.463-.938 1.04-1.97 1.697-3.097 1.957 2.132.52 3.694 1.382 4.672 2.586.977 1.204 1.453 2.846 1.453 4.913 0 2.408-.87 4.31-2.608 5.747-1.751 1.423-4.033 2.135-6.83 2.135z"/>
        <path fill="#009EE5" d="M123.27 22.94c-1.037.846-2.663 1.269-4.894 1.269-.656 0-1.587-.066-2.82-.172V13.949l2.873-.092c2.296 0 3.923.41 4.907 1.229.984.82 1.47 2.076 1.47 3.795 0 1.864-.512 3.212-1.536 4.059zm-7.714-19.356a33.193 33.193 0 0 1 3.2-.133c3.11 0 4.658 1.217 4.658 3.663 0 2.776-1.692 4.165-5.077 4.165-1.102 0-2.034-.04-2.781-.106v-7.59zM127.5 14.44c-.792-.977-1.953-1.738-3.461-2.273.686-.36 1.334-.877 1.938-1.547.972-1.078 1.464-2.303 1.464-3.639 0-2.215-.771-3.95-2.292-5.156-1.486-1.179-3.601-1.776-6.287-1.776-1.342 0-3.538.071-6.909.225l-.424.02v27.225h7.91c2.814 0 5.13-.728 6.883-2.163 1.787-1.467 2.693-3.45 2.693-5.893 0-2.095-.51-3.786-1.515-5.023zM137.705.828a2.506 2.506 0 0 0-1.813-.753c-.698 0-1.303.253-1.795.748-.481.47-.736 1.095-.736 1.809 0 .707.25 1.319.745 1.816a2.47 2.47 0 0 0 1.786.754c.696 0 1.323-.26 1.818-.759.49-.51.74-1.12.74-1.811 0-.683-.25-1.288-.745-1.804M130.947 7.373v3.751h2.624V27.52h4.288V7.373zM149.668 23.747c-.828 0-1.475-.24-1.978-.732-.506-.494-.752-1.173-.752-2.074V0h-4.288v21.505c0 4.023 2.362 6.063 7.018 6.063h.445v-3.822h-.445zM160.453 23.747c-.828 0-1.475-.24-1.979-.732-.505-.494-.751-1.173-.751-2.074V0h-4.288v21.505c0 4.023 2.361 6.063 7.018 6.063h.445v-3.822h-.445z"/>
        <path fill="#FF732E" d="M22.672 11.191a81.33 81.33 0 0 1 1.8-2.18c.302-.392.57-.634.767-.772.348-.23.755-.404 1.22-.508a6.842 6.842 0 0 1 1.719-.138 13.23 13.23 0 0 1 2.206.311c.906.208 1.626.473 2.16.808.535.311.802.669.837 1.015.035.368-.186.83-.662 1.395-.546.669-1.115 1.35-1.684 2.019-2.788-.658-5.575-1.304-8.363-1.95M9.478 8.804c.673-.727 1.347-1.465 2.02-2.18.349-.392.628-.634.849-.773.383-.23.801-.403 1.277-.507.465-.116 1.045-.162 1.719-.127.697.011 1.417.127 2.172.3.895.207 1.591.473 2.079.807.5.312.743.67.732 1.038-.012.346-.279.808-.801 1.373-.616.68-1.243 1.349-1.87 2.03-2.73-.646-5.448-1.315-8.177-1.961M0 11.053C4.626 5.53 13.276-5.59 24.902 3.464 30.396.88 46.028 4.492 40.385 11.203c-2.19 2.604-5.657 5.898-8.084 8.194C21.174 17.032 11.127 13.417 0 11.053"/>
        <path fill="#B5B5B5" d="M4.263 31.374l-.825-3.634 2.579 1.055z"/>
        <path fill="#CECECE" d="M46.728 24.542l-4.54-2.299-9.574 10.128h-.023l-3.124 3.294c-.186.2-.593.293-.894.211-.291-.093-.395-.328-.198-.539l3.124-3.295-2.404-.703c-1.034 1.102-2.08 2.204-3.113 3.295-.197.21-.592.293-.894.21-.302-.093-.395-.327-.21-.527 1.046-1.102 2.08-2.204 3.125-3.306l-2.927-.856-3.124 3.294c-.186.2-.592.294-.894.2-.302-.082-.395-.317-.198-.528 1.034-1.09 2.08-2.193 3.113-3.295l-2.904-.855c-1.034 1.102-2.079 2.204-3.113 3.294-.197.2-.592.305-.894.211-.302-.093-.395-.328-.21-.527 1.046-1.102 2.08-2.204 3.114-3.295l-3.043-.903c-1.034 1.103-2.08 2.205-3.113 3.295-.186.211-.592.305-.894.211-.302-.094-.396-.329-.198-.528 1.034-1.102 2.068-2.204 3.113-3.306l-2.939-.856a809.086 809.086 0 0 0-3.1 3.295c-.198.199-.605.293-.895.211-.314-.094-.395-.328-.21-.528 1.035-1.102 2.08-2.204 3.114-3.306l-5.425-1.595-2.938 3.095.801 3.612c4.182 1.23 8.363 2.462 12.544 3.693 5.169 1.524 15.82 4.655 15.82 4.655l14.125-15.157z"/>
        <path fill="#009EE5" d="M46.728 14.881l-4.54-2.3-9.574 10.128h-.023l-3.124 3.295c-.186.2-.593.293-.894.21-.291-.093-.395-.327-.198-.538l3.124-3.295-2.404-.703c-1.034 1.102-2.08 2.204-3.113 3.294-.197.211-.592.294-.894.211-.302-.094-.395-.328-.21-.527 1.046-1.103 2.08-2.205 3.125-3.307l-2.927-.855-3.124 3.294c-.186.2-.592.293-.894.2-.302-.083-.395-.317-.198-.528 1.034-1.09 2.08-2.193 3.113-3.295l-2.904-.855c-1.034 1.102-2.079 2.204-3.113 3.294-.197.2-.592.305-.894.21-.302-.093-.395-.327-.21-.526 1.046-1.103 2.08-2.205 3.114-3.295l-3.043-.903c-1.034 1.102-2.08 2.204-3.113 3.294-.186.212-.592.305-.894.212-.302-.094-.396-.329-.198-.528 1.034-1.102 2.068-2.204 3.113-3.306l-2.939-.856a809.086 809.086 0 0 0-3.1 3.295c-.198.199-.605.293-.895.21-.314-.093-.395-.328-.21-.527 1.035-1.102 2.08-2.204 3.114-3.306l-5.425-1.595-2.938 3.095.801 3.611 12.544 3.694c5.169 1.524 15.82 4.654 15.82 4.654l14.125-15.156z"/>
        <path fill="#FF732E" d="M22.672 11.191a81.33 81.33 0 0 1 1.8-2.18c.302-.392.57-.634.767-.772.348-.23.755-.404 1.22-.508a6.842 6.842 0 0 1 1.719-.138 13.23 13.23 0 0 1 2.206.311c.906.208 1.626.473 2.16.808.535.311.802.669.837 1.015.035.368-.186.83-.662 1.395-.546.669-1.115 1.35-1.684 2.019-2.788-.658-5.575-1.304-8.363-1.95M9.478 8.804c.673-.727 1.347-1.465 2.02-2.18.349-.392.628-.634.849-.773.383-.23.801-.403 1.277-.507.465-.116 1.045-.162 1.719-.127.697.011 1.417.127 2.172.3.895.207 1.591.473 2.079.807.5.312.743.67.732 1.038-.012.346-.279.808-.801 1.373-.616.68-1.243 1.349-1.87 2.03-2.73-.646-5.448-1.315-8.177-1.961M0 11.053C4.626 5.53 13.276-5.59 24.902 3.464 30.396.88 46.028 4.492 40.385 11.203c-2.19 2.604-5.657 5.898-8.084 8.194C21.174 17.032 11.127 13.417 0 11.053"/>
        <path fill="#CECECE" d="M46.728 24.542l-4.54-2.299-9.574 10.128h-.023l-3.124 3.294c-.186.2-.593.293-.894.211-.291-.093-.395-.328-.198-.539l3.124-3.295-2.404-.703c-1.034 1.102-2.08 2.204-3.113 3.295-.197.21-.592.293-.894.21-.302-.093-.395-.327-.21-.527 1.046-1.102 2.08-2.204 3.125-3.306l-2.927-.856-3.124 3.294c-.186.2-.592.294-.894.2-.302-.082-.395-.317-.198-.528 1.034-1.09 2.08-2.193 3.113-3.295l-2.904-.855c-1.034 1.102-2.079 2.204-3.113 3.294-.197.2-.592.305-.894.211-.302-.093-.395-.328-.21-.527 1.046-1.102 2.08-2.204 3.114-3.295l-3.043-.903c-1.034 1.103-2.08 2.205-3.113 3.295-.186.211-.592.305-.894.211-.302-.094-.396-.329-.198-.528 1.034-1.102 2.068-2.204 3.113-3.306l-2.939-.856a809.086 809.086 0 0 0-3.1 3.295c-.198.199-.605.293-.895.211-.314-.094-.395-.328-.21-.528 1.035-1.102 2.08-2.204 3.114-3.306l-5.425-1.595-2.938 3.095.801 3.612c4.182 1.23 8.363 2.462 12.544 3.693 5.169 1.524 15.82 4.655 15.82 4.655l14.125-15.157z"/>
        <path fill="#009EE5" d="M46.728 14.881l-4.54-2.3-9.574 10.128h-.023l-3.124 3.295c-.186.2-.593.293-.894.21-.291-.093-.395-.327-.198-.538l3.124-3.295-2.404-.703c-1.034 1.102-2.08 2.204-3.113 3.294-.197.211-.592.294-.894.211-.302-.094-.395-.328-.21-.527 1.046-1.103 2.08-2.205 3.125-3.307l-2.927-.855-3.124 3.294c-.186.2-.592.293-.894.2-.302-.083-.395-.317-.198-.528 1.034-1.09 2.08-2.193 3.113-3.295l-2.904-.855c-1.034 1.102-2.079 2.204-3.113 3.294-.197.2-.592.305-.894.21-.302-.093-.395-.327-.21-.526 1.046-1.103 2.08-2.205 3.114-3.295l-3.043-.903c-1.034 1.102-2.08 2.204-3.113 3.294-.186.212-.592.305-.894.212-.302-.094-.396-.329-.198-.528 1.034-1.102 2.068-2.204 3.113-3.306l-2.939-.856a809.086 809.086 0 0 0-3.1 3.295c-.198.199-.605.293-.895.21-.314-.093-.395-.328-.21-.527 1.035-1.102 2.08-2.204 3.114-3.306l-5.425-1.595-2.938 3.095.801 3.611 12.544 3.694c5.169 1.524 15.82 4.654 15.82 4.654l14.125-15.156z"/>
        <path fill="#B5B5B5" d="M3.438 27.74l2.614.946-1.813 2.665z"/>
        <path fill="#0292C4" d="M3.442 18.073l2.614.947-1.813 2.665z"/>
    </g>
</svg>
