<svg xmlns="http://www.w3.org/2000/svg" xmlns:xlink="http://www.w3.org/1999/xlink" width="1200" height="567" viewBox="0 0 1200 567">
    <defs>
        <path id="a" d="M0 0h1200v677H0z"/>
        <linearGradient id="b" x1="0%" y1="96.596%" y2="0%">
            <stop offset="0%" stop-color="#00C6FF"/>
            <stop offset="100%" stop-color="#007BCE"/>
        </linearGradient>
        <linearGradient id="d" x1="50%" x2="50%" y1="103.94%" y2="30.909%">
            <stop offset="0%" stop-color="#BFF1F4" stop-opacity=".99"/>
            <stop offset="100%" stop-color="#FFF"/>
        </linearGradient>
    </defs>
    <g fill="none" fill-rule="evenodd">
        <mask id="c" fill="#fff">
            <use xlink:href="#a"/>
        </mask>
        <path fill="url(#b)" fill-opacity=".8" d="M0 0h1200v450c-88.889-22.667-211.111-34-366.667-34C600 416 526.667 511 0 450V0z" mask="url(#c)" transform="matrix(-1 0 0 1 1200 0)"/>
        <g fill-opacity=".8" mask="url(#c)">
            <path fill="url(#d)" d="M378.443 223.477c0 86.456-69.951 156.543-156.245 156.543-86.286 0-156.24-70.087-156.24-156.543s69.954-156.542 156.24-156.542c86.294 0 156.245 70.086 156.245 156.542" transform="rotate(-47 808.255 -536.55)"/>
            <path fill="#FFF" d="M1152.799 377.607c-3.516 3.77-5.597 8.872-5.415 14.413.383 11.08 9.705 19.774 20.786 19.383 11.085-.401 19.785-9.73 19.411-20.817-.38-11.083-9.703-19.776-20.785-19.383-5.538.203-10.482 2.635-13.997 6.404m30.871 28.789c-3.874 4.154-9.322 6.837-15.433 7.05-12.208.441-22.482-9.14-22.896-21.35-.42-12.217 9.175-22.505 21.387-22.936 12.21-.439 22.485 9.142 22.896 21.35.216 6.11-2.082 11.734-5.954 15.886"/>
            <path fill="url(#d)" d="M106.505 0c58.823 0 106.504 47.61 106.504 106.342 0 58.73-47.681 106.34-106.504 106.34C47.685 212.681 0 165.071 0 106.341 0 47.61 47.685 0 106.505 0" transform="rotate(-47 808.255 -536.55)"/>
            <path fill="#FFF" d="M849.179 275.989c-12.025 12.894-11.33 33.155 1.542 45.158 12.874 12.006 33.131 11.283 45.155-1.612 12.025-12.894 11.33-33.15-1.544-45.155-12.872-12.004-33.13-11.286-45.153 1.609m48.22 44.966c-12.808 13.735-34.384 14.507-48.1 1.717-13.714-12.788-14.45-34.368-1.643-48.103 12.808-13.734 34.387-14.505 48.1-1.717 13.716 12.79 14.45 34.369 1.643 48.103"/>
        </g>
    </g>
</svg>
