<svg xmlns="http://www.w3.org/2000/svg" xmlns:xlink="http://www.w3.org/1999/xlink" width="1200" height="436" viewBox="0 0 1200 436">
    <defs>
        <linearGradient id="b" x1="89.03%" x2="8.321%" y1="2.894%" y2="100%">
            <stop offset="0%" stop-color="#00C6FF"/>
            <stop offset="100%" stop-color="#007BCE"/>
        </linearGradient>
        <path id="a" d="M0 0h1200v436H0z"/>
        <linearGradient id="d" x1="50%" x2="50%" y1="103.94%" y2="30.909%">
            <stop offset="0%" stop-color="#BFF1F4" stop-opacity=".99"/>
            <stop offset="100%" stop-color="#FFF"/>
        </linearGradient>
        <linearGradient id="e" x1="100%" x2="0%" y1="0%" y2="100%">
            <stop offset="0%" stop-color="#FFF" stop-opacity=".5"/>
            <stop offset="100%" stop-color="#FFF" stop-opacity="0"/>
        </linearGradient>
    </defs>
    <g fill="none" fill-rule="evenodd">
        <mask id="c" fill="#fff">
            <use xlink:href="#a"/>
        </mask>
        <use fill="url(#b)" fill-opacity=".8" xlink:href="#a"/>
        <g fill-opacity=".8" mask="url(#c)">
            <path fill="url(#d)" d="M378.443 223.477c0 86.456-69.951 156.543-156.245 156.543-86.286 0-156.24-70.087-156.24-156.543s69.954-156.542 156.24-156.542c86.294 0 156.245 70.086 156.245 156.542" transform="scale(-1 1) rotate(-47 208.25 1063.493)"/>
            <path fill="url(#d)" d="M106.505 0c58.823 0 106.504 47.61 106.504 106.342 0 58.73-47.681 106.34-106.504 106.34C47.685 212.681 0 165.071 0 106.341 0 47.61 47.685 0 106.505 0" transform="scale(-1 1) rotate(-47 208.25 1063.493)"/>
            <path fill="#FFF" d="M511.821 345.989c12.025 12.894 11.33 33.155-1.542 45.158-12.874 12.006-33.131 11.283-45.155-1.612-12.025-12.894-11.33-33.15 1.544-45.155 12.872-12.004 33.13-11.286 45.153 1.609m-48.22 44.966c12.808 13.735 34.384 14.507 48.1 1.717 13.714-12.788 14.45-34.368 1.643-48.103-12.808-13.734-34.387-14.505-48.1-1.717-13.716 12.79-14.45 34.369-1.643 48.103"/>
        </g>
        <g fill-rule="nonzero" mask="url(#c)">
            <path fill="#FFF" fill-opacity=".71" d="M971.098 146.075l2.11-2.113v422.642l-2.11-2.113h237.353l-2.11 2.113V143.962l2.11 2.113H971.098zm237.353-2.113v422.642H971.098V143.962h237.353zm-168.784-26.415a5.279 5.279 0 0 0 5.274-5.283 5.279 5.279 0 0 0-5.274-5.283 5.279 5.279 0 0 0-5.275 5.283 5.279 5.279 0 0 0 5.275 5.283zm44.833-15.849a2.64 2.64 0 0 0 2.637-2.641 2.64 2.64 0 0 0-2.637-2.642 2.64 2.64 0 0 0-2.637 2.642 2.64 2.64 0 0 0 2.637 2.641zm-21.094 10.566h42.188a2.642 2.642 0 1 1 0 5.283h-42.188a2.642 2.642 0 1 1 0-5.283zm42.192 483.396c0-11.67-9.446-21.132-21.098-21.132s-21.098 9.461-21.098 21.132c0 11.671 9.446 21.132 21.098 21.132s21.098-9.46 21.098-21.132zm-36.922 0c0-8.753 7.085-15.849 15.824-15.849 8.74 0 15.824 7.096 15.824 15.85 0 8.753-7.085 15.848-15.824 15.848-8.74 0-15.824-7.095-15.824-15.849zm-108.127-7.923c0 20.403 16.554 36.98 36.951 36.98h179.274c20.437 0 36.951-16.541 36.951-36.98V112.263c0-20.403-16.554-36.98-36.95-36.98H997.5c-20.436 0-36.951 16.541-36.951 36.98v475.474zM997.5 70h179.274c23.32 0 42.226 18.953 42.226 42.263v475.474c0 23.341-18.86 42.263-42.226 42.263H997.5c-23.32 0-42.225-18.953-42.225-42.263V112.263C955.275 88.922 974.135 70 997.5 70zm-44.863 73.962h2.638v39.799h-2.638c-1.456 0-2.637-2.14-2.637-4.88v-30.039c0-2.695 1.223-4.88 2.637-4.88zm0 66.214h2.638v79.598h-2.638c-1.456 0-2.637-2.297-2.637-4.98v-69.639c0-2.75 1.223-4.979 2.637-4.979z"/>
            <path fill="url(#e)" fill-opacity=".51" d="M47.27 0h179.46C250.075 0 269 18.953 269 42.263v475.474C269 541.078 250.12 560 226.73 560H47.27C23.925 560 5 541.047 5 517.737V42.263C5 18.922 23.88 0 47.27 0z" transform="translate(950 70)"/>
        </g>
    </g>
</svg>
