<svg xmlns="http://www.w3.org/2000/svg" width="24" height="20" viewBox="0 0 24 20">
    <path fill="#009EE6" fill-rule="nonzero"
          d="M22.87 2.355a1.51 1.51 0 0 0-2.22-1.73c-.475.278-.97.501-1.487.659A5.736 5.736 0 0 0 15.687.107a5.719 5.719 0 0 0-5.658 4.94 10.466 10.466 0 0 1-5.913-3.615 1.509 1.509 0 0 0-1.17-.558c-.039 0-.079.003-.12.005a1.512 1.512 0 0 0-1.187.746 5.699 5.699 0 0 0-.774 2.873c0 .682.12 1.346.345 1.967-.241.274-.381.629-.381 1.004 0 1.498.565 2.875 1.507 3.91-.058.258-.05.53.036.792.326 1.021.922 1.9 1.693 2.57a6.986 6.986 0 0 1-2.371.122 1.505 1.505 0 0 0-1.597.994A1.511 1.511 0 0 0 .7 17.64a13.43 13.43 0 0 0 7.255 2.126c8.35 0 13.367-6.72 13.457-13.28a10.008 10.008 0 0 0 1.783-1.988 1.516 1.516 0 0 0-.327-2.142zm-2.98 3.406c.009.18.012.36.012.542 0 5.55-4.223 11.947-11.946 11.947a11.89 11.89 0 0 1-6.438-1.886 8.425 8.425 0 0 0 6.217-1.74 4.202 4.202 0 0 1-3.923-2.916 4.193 4.193 0 0 0 1.895-.071 4.204 4.204 0 0 1-3.37-4.12v-.051a4.19 4.19 0 0 0 1.903.523 4.199 4.199 0 0 1-1.298-5.605 11.915 11.915 0 0 0 8.654 4.386 4.158 4.158 0 0 1-.107-.957 4.198 4.198 0 0 1 4.197-4.197 4.2 4.2 0 0 1 3.066 1.324 8.379 8.379 0 0 0 2.666-1.018 4.22 4.22 0 0 1-1.846 2.322 8.319 8.319 0 0 0 2.41-.661A8.436 8.436 0 0 1 19.89 5.76z"/>
</svg>
