<svg xmlns="http://www.w3.org/2000/svg" width="23" height="19" viewBox="0 0 23 19">
    <path fill="#68727C" fill-rule="evenodd" d="M22.366.351c-.913.55-1.921.949-2.999 1.162A4.673 4.673 0 0 0 15.923 0c-2.604 0-4.717 2.148-4.717 4.796 0 .377.04.741.122 1.093C7.406 5.689 3.93 3.78 1.6.875A4.85 4.85 0 0 0 .962 3.29c0 1.663.833 3.131 2.1 3.991a4.663 4.663 0 0 1-2.139-.597v.058c0 2.325 1.627 4.264 3.787 4.703a4.637 4.637 0 0 1-2.132.084c.601 1.905 2.343 3.292 4.408 3.33a9.37 9.37 0 0 1-5.86 2.054c-.381 0-.758-.022-1.126-.066A13.218 13.218 0 0 0 7.234 19c8.68 0 13.425-7.308 13.425-13.647 0-.208-.004-.417-.012-.621A9.63 9.63 0 0 0 23 2.249a9.304 9.304 0 0 1-2.71.755A4.793 4.793 0 0 0 22.367.351"/>
</svg>
